<?xml version="1.0" standalone="no"?>
<!DOCTYPE svg PUBLIC "-//W3C//DTD SVG 20010904//EN"
 "http://www.w3.org/TR/2001/REC-SVG-20010904/DTD/svg10.dtd">
<svg version="1.0" xmlns="http://www.w3.org/2000/svg"
 width="749.000000pt" height="749.000000pt" viewBox="0 0 749.000000 749.000000"
 preserveAspectRatio="xMidYMid meet">
<metadata>
Created by potrace 1.11, written by Peter Selinger 2001-2013
</metadata>
<g transform="translate(0.000000,749.000000) scale(0.100000,-0.100000)"
fill="#000000" stroke="none">
<path d="M0 7475 c0 -14 401 -15 3745 -14 3236 0 3745 2 3745 15 0 12 -508 14
-3745 14 -3344 0 -3745 -2 -3745 -15z"/>
<path d="M3422 6793 c-28 -5 -24 -27 6 -31 17 -3 22 2 22 17 0 12 -1 20 -2 20
-2 -1 -13 -4 -26 -6z"/>
<path d="M2629 6735 c-14 -8 -38 -16 -54 -19 -15 -3 -34 -14 -42 -26 -8 -11
-21 -20 -29 -20 -9 0 -22 -6 -29 -14 -7 -7 -44 -26 -82 -42 -37 -16 -74 -37
-82 -47 -7 -10 -44 -38 -82 -63 -38 -24 -69 -50 -69 -58 0 -8 -7 -16 -15 -20
-8 -3 -20 -17 -25 -31 -7 -17 -14 -23 -26 -18 -15 5 -16 2 -11 -25 5 -24 3
-30 -7 -26 -8 3 -16 -4 -19 -16 -5 -18 -9 -20 -26 -11 -27 15 -31 14 -31 -10
0 -12 -5 -19 -12 -16 -7 2 -12 11 -10 20 5 29 -20 30 -44 1 -19 -21 -27 -25
-36 -16 -18 18 -33 14 -47 -11 -10 -19 -19 -22 -47 -19 -31 4 -35 2 -40 -25
-5 -26 -9 -28 -41 -25 -27 3 -38 0 -49 -17 -8 -11 -25 -21 -37 -21 -29 0 -46
-12 -61 -41 -6 -13 -22 -29 -35 -35 -13 -7 -18 -13 -11 -16 11 -3 20 -46 22
-107 0 -14 -6 -29 -14 -35 -12 -10 -49 -94 -49 -113 0 -5 -7 -12 -15 -16 -20
-12 -17 -37 5 -37 10 0 24 -7 31 -15 10 -13 9 -15 -11 -16 -21 -1 -21 -2 6
-10 70 -22 106 -27 102 -16 -5 15 39 57 59 57 7 0 14 5 14 11 0 5 4 8 9 5 5
-4 11 -1 13 5 2 6 20 11 41 11 20 0 37 4 37 9 0 5 7 9 15 9 8 0 15 -4 15 -10
0 -5 21 -10 46 -10 29 0 43 -4 39 -11 -4 -6 -26 -10 -49 -9 -78 3 -95 0 -122
-25 -15 -14 -33 -25 -40 -25 -8 0 -14 -7 -14 -15 0 -8 -5 -15 -11 -15 -7 0 -9
-10 -7 -25 4 -17 1 -25 -9 -25 -7 0 -16 -13 -19 -30 -8 -38 -20 -38 -27 0 -4
16 -16 39 -27 50 -11 11 -20 25 -20 31 0 9 -57 4 -69 -7 -7 -6 11 -24 25 -24
8 0 14 -10 14 -24 0 -13 6 -27 13 -29 9 -4 8 -8 -3 -16 -13 -10 -13 -12 0 -21
8 -5 11 -10 6 -10 -5 0 -3 -7 4 -15 19 -23 57 -19 64 8 6 21 7 21 21 3 18 -23
66 -24 101 -1 27 17 24 35 -7 35 -13 0 -19 7 -19 23 0 20 5 24 37 25 20 1 41
6 47 12 16 16 136 13 136 -4 0 -13 8 -16 125 -35 47 -8 48 -8 15 -11 -35 -3
-35 -3 -5 -7 17 -3 36 -10 44 -16 12 -9 13 -9 7 1 -5 8 1 12 18 12 14 0 26 -4
26 -8 0 -9 80 -39 93 -34 4 1 7 -4 7 -12 0 -7 9 -16 20 -19 11 -3 20 -1 20 4
0 13 37 11 59 -3 22 -13 51 -5 51 15 0 24 -36 57 -64 57 -14 0 -26 5 -26 10 0
6 17 10 39 10 59 0 105 11 89 21 -8 6 0 9 25 9 33 0 37 3 37 25 0 18 -5 25
-20 25 -11 0 -20 4 -20 9 0 20 13 41 25 41 7 0 18 14 24 30 5 17 16 30 23 30
9 0 9 3 -2 10 -13 8 -13 14 -1 42 7 18 14 44 16 58 1 14 3 29 4 34 0 4 10 6
22 3 12 -3 22 0 26 9 3 8 12 14 20 14 9 0 13 6 10 14 -3 8 1 20 9 27 12 10 21
9 45 -5 17 -10 37 -15 45 -12 12 5 11 10 -9 30 -18 18 -23 32 -19 51 4 25 8
27 38 22 36 -6 70 15 57 36 -4 6 0 8 10 4 13 -5 20 6 32 51 20 69 52 113 66
91 8 -12 10 -12 19 1 5 8 10 23 10 32 0 9 12 26 27 38 23 18 25 24 15 40 -10
16 -8 26 8 53 18 31 19 36 5 47 -14 11 -13 14 2 26 17 13 17 13 -1 14 -21 0
-109 91 -128 132 -8 18 -22 28 -43 31 -17 3 -49 17 -70 31 -42 29 -77 32 -116
11z m51 -691 c0 -8 -5 -12 -10 -9 -6 4 -8 11 -5 16 9 14 15 11 15 -7z m-1120
-169 c0 -8 -4 -15 -10 -15 -5 0 -10 7 -10 15 0 8 5 15 10 15 6 0 10 -7 10 -15z
m907 -52 c-3 -10 -5 -4 -5 12 0 17 2 24 5 18 2 -7 2 -21 0 -30z m-484 -70 c-7
-2 -19 -2 -25 0 -7 3 -2 5 12 5 14 0 19 -2 13 -5z m154 -49 c-3 -3 -12 -4 -19
-1 -8 3 -5 6 6 6 11 1 17 -2 13 -5z m123 -29 c0 -8 5 -15 11 -15 5 0 7 -4 4
-10 -3 -5 -11 -10 -16 -10 -6 0 -8 4 -5 9 3 5 -1 11 -9 15 -19 7 -19 26 0 26
8 0 15 -7 15 -15z m160 -21 c0 -8 -4 -14 -10 -14 -5 0 -10 9 -10 21 0 11 5 17
10 14 6 -3 10 -13 10 -21z m-96 -26 c-3 -4 -20 -8 -37 -7 -27 0 -29 2 -12 9
25 10 55 9 49 -2z"/>
<path d="M3706 6601 c-4 -6 -22 -11 -40 -11 -26 0 -40 -8 -65 -37 -17 -20 -31
-40 -31 -45 0 -5 -4 -6 -10 -3 -6 4 -10 -8 -10 -29 0 -23 -5 -36 -13 -36 -7 0
-14 -10 -14 -22 -1 -13 -7 -24 -13 -26 -5 -2 -10 -22 -10 -43 0 -22 -4 -38 -9
-35 -10 6 -21 -26 -21 -61 0 -13 -4 -23 -10 -23 -5 0 -10 -24 -10 -54 0 -29
-5 -68 -12 -86 -9 -28 -9 -35 7 -46 23 -17 55 2 55 33 0 13 4 23 10 23 5 0 12
11 16 25 3 14 10 22 15 19 5 -3 9 2 9 11 0 9 -4 13 -10 10 -5 -3 -10 -1 -10 4
0 6 5 11 10 11 6 0 10 16 10 35 0 24 5 35 15 35 8 0 15 9 15 20 0 11 5 20 10
20 6 0 10 12 10 26 0 15 7 32 16 38 10 8 17 30 19 62 1 27 6 58 10 69 9 22 45
60 45 48 0 -4 7 1 15 11 15 19 15 19 16 -5 0 -13 3 -18 6 -11 2 6 9 12 14 12
14 0 10 -37 -6 -54 -8 -8 -15 -19 -15 -24 0 -6 -6 -13 -12 -16 -9 -4 -8 -5 2
-4 8 1 26 -3 40 -9 14 -6 46 -18 73 -26 l47 -14 0 33 c0 18 -4 36 -10 39 -5 3
-10 15 -10 26 0 10 -4 19 -10 19 -5 0 -10 7 -10 15 0 8 -7 15 -16 15 -17 0
-44 23 -44 37 0 5 -10 9 -22 10 -11 1 -24 7 -28 14 -6 8 -9 8 -14 0z"/>
<path d="M80 6280 c0 -5 5 -10 10 -10 6 0 10 5 10 10 0 6 -4 10 -10 10 -5 0
-10 -4 -10 -10z"/>
<path d="M3975 6150 c3 -5 2 -10 -3 -10 -5 0 -7 -11 -4 -25 2 -14 9 -25 16
-25 6 0 16 -10 21 -22 12 -27 45 -37 41 -13 -1 8 -8 21 -14 27 -7 7 -12 19
-12 28 -1 20 -24 50 -39 50 -7 0 -9 -4 -6 -10z"/>
<path d="M2646 5961 c-7 -10 18 -34 27 -25 7 8 -3 34 -13 34 -5 0 -11 -4 -14
-9z"/>
<path d="M3750 5604 c0 -8 -7 -14 -16 -14 -9 0 -31 -15 -50 -32 l-35 -33 2
-102 c1 -57 5 -100 10 -97 5 3 9 1 9 -4 0 -16 36 -52 56 -55 10 -2 38 -10 62
-17 32 -10 48 -10 65 -2 12 6 33 14 46 18 41 11 93 74 61 74 -5 0 -10 24 -10
53 0 33 -3 47 -9 38 -7 -11 -10 -9 -15 7 -4 12 -16 24 -27 27 -10 4 -19 11
-19 16 0 5 -6 9 -13 9 -7 0 -20 9 -30 20 -17 20 -16 20 25 14 24 -3 56 -13 72
-20 16 -8 39 -14 51 -14 15 0 25 -8 29 -22 9 -37 7 -83 -5 -95 -18 -18 -4 -42
20 -36 14 4 21 14 21 30 0 13 4 21 10 18 6 -3 10 3 10 13 0 29 -24 69 -38 64
-15 -5 -16 20 0 36 9 9 8 12 -5 12 -9 0 -17 4 -17 9 0 5 -8 7 -18 4 -10 -2
-27 6 -41 21 -14 14 -30 26 -38 26 -7 0 -13 10 -13 23 0 16 -3 18 -9 8 -7 -11
-9 -11 -13 0 -7 20 -128 23 -128 3z"/>
<path d="M1650 5480 c0 -22 5 -40 11 -40 5 0 9 -10 7 -22 -2 -19 2 -24 25 -26
22 -3 30 1 34 17 3 12 9 21 14 21 16 0 10 49 -8 70 -11 12 -30 20 -50 20 -32
0 -33 -1 -33 -40z"/>
<path d="M1607 5405 l16 -34 14 26 c7 14 11 28 8 31 -3 3 -5 0 -5 -6 0 -7 -4
-12 -10 -12 -5 0 -10 7 -10 15 0 8 -7 15 -15 15 -13 0 -12 -5 2 -35z"/>
<path d="M1782 5304 c-22 -18 -32 -34 -32 -53 0 -32 27 -91 41 -91 5 0 9 -16
9 -36 0 -21 4 -33 10 -29 6 3 10 -1 10 -10 0 -8 7 -18 15 -21 8 -4 15 -12 15
-19 0 -7 7 -19 16 -26 15 -12 16 -8 12 56 -2 41 -9 70 -16 73 -7 2 -12 26 -12
60 0 42 -3 53 -11 42 -8 -12 -9 -8 -7 15 1 17 -2 38 -8 47 -8 16 -12 15 -42
-8z"/>
<path d="M2830 5213 c-8 -2 -24 -8 -35 -13 -11 -4 -28 -11 -38 -14 -10 -3 -23
-19 -28 -36 -6 -16 -15 -30 -20 -30 -5 0 -9 -16 -9 -36 0 -19 -4 -43 -8 -52
-10 -21 10 -84 23 -74 13 9 35 49 35 64 1 18 58 83 66 75 4 -4 3 -12 -3 -19
-19 -25 -36 -97 -29 -123 4 -15 22 -43 41 -62 19 -20 35 -40 35 -45 0 -15 117
-9 130 7 7 8 17 15 22 15 10 0 88 75 88 85 0 11 25 32 48 39 31 10 30 59 -3
91 -13 14 -29 25 -35 25 -5 0 -10 7 -10 15 0 8 -7 15 -15 15 -8 0 -15 4 -15 8
0 5 -28 23 -63 40 -61 31 -131 41 -177 25z m285 -193 c3 -5 1 -10 -4 -10 -6 0
-11 5 -11 10 0 6 2 10 4 10 3 0 8 -4 11 -10z"/>
<path d="M3736 5055 c-8 -8 -19 -15 -25 -15 -6 0 -11 -16 -11 -35 0 -29 4 -35
21 -35 29 0 59 37 59 72 0 31 -19 37 -44 13z"/>
<path d="M1891 5044 c0 -11 3 -14 6 -6 3 7 2 16 -1 19 -3 4 -6 -2 -5 -13z"/>
<path d="M1930 4966 c0 -22 3 -27 11 -19 8 8 8 16 0 30 -9 16 -10 14 -11 -11z"/>
<path d="M3506 4937 c-15 -19 -26 -37 -26 -40 0 -4 20 -7 44 -7 42 0 56 10 56
40 0 11 -29 40 -40 40 -5 0 -20 -15 -34 -33z"/>
<path d="M7445 4921 c-3 -5 -1 -12 5 -16 5 -3 10 1 10 9 0 18 -6 21 -15 7z"/>
<path d="M6636 4911 c-4 -7 -5 -15 -2 -18 9 -9 19 4 14 18 -4 11 -6 11 -12 0z"/>
<path d="M5866 4874 c-9 -8 -13 -21 -9 -27 5 -8 9 -7 11 5 2 9 11 18 20 20 12
2 13 6 5 11 -6 4 -19 0 -27 -9z"/>
<path d="M2701 4851 c3 -7 8 -12 12 -11 4 0 15 -6 23 -15 17 -16 47 -18 79 -5
22 9 14 14 -40 24 -16 3 -41 9 -54 12 -16 5 -22 3 -20 -5z"/>
<path d="M2000 4815 c0 -14 4 -25 10 -25 5 0 12 -11 16 -25 3 -14 10 -25 15
-25 5 0 9 -11 9 -25 0 -16 6 -25 15 -25 8 0 15 -7 15 -15 0 -8 6 -15 13 -15 8
0 7 -4 -3 -10 -11 -7 -4 -10 25 -9 31 0 36 2 20 9 -18 8 -17 9 7 9 24 1 29 6
34 41 4 22 10 37 15 34 5 -3 9 5 8 18 0 13 -3 17 -6 10 -4 -9 -10 -7 -23 8
-13 15 -31 21 -61 22 -31 0 -48 7 -64 24 -29 31 -45 30 -45 -1z"/>
<path d="M0 4799 c0 -5 5 -7 10 -4 5 3 10 8 10 11 0 2 -4 4 -10 4 -5 0 -10 -5
-10 -11z"/>
<path d="M3730 4720 c0 -26 3 -30 29 -30 17 0 32 4 35 9 6 10 -20 35 -46 44
-15 5 -18 1 -18 -23z"/>
<path d="M7080 4569 c0 -5 5 -7 10 -4 6 3 10 8 10 11 0 2 -4 4 -10 4 -5 0 -10
-5 -10 -11z"/>
<path d="M6305 4550 c3 -5 8 -10 11 -10 2 0 4 5 4 10 0 6 -5 10 -11 10 -5 0
-7 -4 -4 -10z"/>
<path d="M6081 4481 c-1 -8 -9 -20 -18 -27 -17 -13 -17 -13 0 -14 19 0 32 22
24 42 -4 10 -6 10 -6 -1z"/>
<path d="M3588 4464 c-5 -4 -8 -19 -8 -33 0 -18 3 -22 11 -14 6 6 9 21 7 33
-1 12 -6 18 -10 14z"/>
<path d="M6331 4384 c0 -11 3 -14 6 -6 3 7 2 16 -1 19 -3 4 -6 -2 -5 -13z"/>
<path d="M130 4355 c0 -8 5 -15 10 -15 6 0 10 7 10 15 0 8 -4 15 -10 15 -5 0
-10 -7 -10 -15z"/>
<path d="M370 4350 c0 -5 4 -10 9 -10 6 0 13 5 16 10 3 6 -1 10 -9 10 -9 0
-16 -4 -16 -10z"/>
<path d="M655 4350 c3 -5 8 -10 11 -10 2 0 4 5 4 10 0 6 -5 10 -11 10 -5 0 -7
-4 -4 -10z"/>
<path d="M111 4324 c0 -11 3 -14 6 -6 3 7 2 16 -1 19 -3 4 -6 -2 -5 -13z"/>
<path d="M5880 4324 c0 -11 5 -14 16 -10 9 3 20 6 25 6 6 0 7 5 4 10 -10 16
-45 12 -45 -6z"/>
<path d="M330 4310 c0 -11 5 -20 10 -20 6 0 10 9 10 20 0 11 -4 20 -10 20 -5
0 -10 -9 -10 -20z"/>
<path d="M5770 4295 c0 -8 7 -15 15 -15 8 0 15 7 15 15 0 8 -7 15 -15 15 -8 0
-15 -7 -15 -15z"/>
<path d="M830 4260 c0 -11 5 -20 10 -20 6 0 10 9 10 20 0 11 -4 20 -10 20 -5
0 -10 -9 -10 -20z"/>
<path d="M270 4180 c0 -5 4 -10 9 -10 6 0 13 5 16 10 3 6 -1 10 -9 10 -9 0
-16 -4 -16 -10z"/>
<path d="M770 4175 c-7 -9 -10 -18 -6 -22 3 -3 6 -1 6 5 0 7 7 12 15 12 8 0
15 5 15 10 0 15 -16 12 -30 -5z"/>
<path d="M1319 4166 c15 -18 51 -17 51 1 0 8 -12 13 -31 13 -26 0 -29 -2 -20
-14z"/>
<path d="M5930 4160 c0 -13 7 -20 20 -20 18 0 19 2 8 20 -7 11 -16 20 -20 20
-5 0 -8 -9 -8 -20z"/>
<path d="M6056 4173 c-3 -4 -6 -12 -6 -20 0 -14 26 -18 33 -5 6 9 -19 33 -27
25z"/>
<path d="M1193 4163 c-7 -2 -13 -9 -13 -15 0 -12 41 -6 41 7 1 12 -11 15 -28
8z"/>
<path d="M400 4150 c0 -5 7 -10 15 -10 8 0 15 5 15 10 0 6 -7 10 -15 10 -8 0
-15 -4 -15 -10z"/>
<path d="M1432 4126 c7 -8 17 -12 22 -9 4 3 2 9 -5 14 -22 13 -31 11 -17 -5z"/>
<path d="M1160 4100 c0 -5 7 -10 15 -10 8 0 15 5 15 10 0 6 -7 10 -15 10 -8 0
-15 -4 -15 -10z"/>
<path d="M6505 4101 c-3 -5 -1 -12 5 -16 5 -3 10 1 10 9 0 18 -6 21 -15 7z"/>
<path d="M1477 4083 c-10 -9 -9 -23 1 -23 5 0 17 7 28 15 19 14 19 14 -2 15
-11 0 -24 -3 -27 -7z"/>
<path d="M1345 4070 c3 -5 13 -10 21 -10 8 0 14 5 14 10 0 6 -9 10 -21 10 -11
0 -17 -4 -14 -10z"/>
<path d="M1600 4067 c0 -7 -13 -21 -30 -30 -47 -28 -54 -97 -10 -97 13 0 20 7
20 20 0 11 5 20 11 20 8 0 10 -15 6 -47 -3 -27 -3 -43 -1 -36 4 10 10 10 25 0
10 -6 19 -16 19 -21 0 -4 -7 -3 -15 4 -11 9 -15 9 -15 1 0 -8 -5 -9 -19 -1
-29 15 -39 12 -43 -12 -3 -24 -35 -35 -64 -24 -13 5 -12 9 2 30 21 33 11 46
-32 44 -33 -1 -35 -3 -29 -27 4 -14 12 -29 18 -33 9 -5 9 -10 0 -19 -8 -8 -17
-8 -33 1 -18 10 -31 10 -61 0 -31 -11 -41 -11 -54 0 -24 20 -18 0 7 -21 11
-11 31 -19 43 -19 23 0 65 -38 65 -58 0 -7 5 -12 10 -12 6 0 10 8 10 17 0 16
1 16 13 0 20 -27 52 -15 55 21 2 18 7 32 12 32 5 0 15 3 24 6 12 5 16 0 16
-20 0 -26 13 -35 25 -16 4 6 11 8 16 5 5 -4 9 3 9 13 0 23 40 52 70 52 11 0
20 -2 20 -5 0 -11 -41 -45 -54 -45 -8 0 -26 -13 -39 -30 -14 -16 -30 -30 -35
-30 -6 0 -8 -9 -5 -20 9 -35 103 -18 103 19 0 6 11 11 25 11 14 0 25 5 25 10
0 6 5 10 10 10 6 0 10 -7 10 -15 0 -8 5 -15 11 -15 5 0 7 5 3 12 -4 6 0 16 8
22 8 6 18 30 21 53 6 36 4 42 -13 48 -25 8 -26 22 -2 27 13 3 9 8 -15 21 -18
10 -33 25 -33 34 0 9 -8 22 -17 29 -16 12 -16 15 -3 24 11 7 6 8 -20 4 -19 -3
-41 -8 -48 -10 -24 -7 -25 26 -1 44 12 11 19 24 15 30 -10 16 -36 15 -36 -1z
m65 -113 c29 -19 23 -48 -9 -38 -25 8 -22 4 -30 32 -9 26 5 29 39 6z m-195
-144 c8 -5 11 -12 8 -16 -4 -3 -14 1 -23 10 -18 17 -9 21 15 6z"/>
<path d="M5946 4064 c-9 -22 -8 -24 10 -24 8 0 22 -7 30 -15 20 -19 34 -19 34
1 0 17 -38 53 -56 54 -7 0 -15 -7 -18 -16z"/>
<path d="M1090 4031 c0 -11 21 -19 38 -14 21 8 13 23 -13 23 -14 0 -25 -4 -25
-9z"/>
<path d="M6355 4030 c-3 -5 1 -10 10 -10 9 0 13 5 10 10 -3 6 -8 10 -10 10 -2
0 -7 -4 -10 -10z"/>
<path d="M6412 4015 c-17 -20 5 -20 24 0 12 11 12 15 2 15 -7 -1 -19 -7 -26
-15z"/>
<path d="M778 4002 c-20 -4 -24 -27 -7 -38 6 -3 15 -2 21 4 15 15 5 38 -14 34z"/>
<path d="M1395 3990 c-3 -5 -18 -11 -33 -11 -17 -1 -21 -3 -9 -6 9 -2 17 -11
17 -19 0 -10 12 -14 40 -14 l41 0 -16 30 c-16 31 -29 37 -40 20z"/>
<path d="M5850 3950 c0 -5 7 -10 15 -10 8 0 15 5 15 10 0 6 -7 10 -15 10 -8 0
-15 -4 -15 -10z"/>
<path d="M1495 3940 c-3 -5 1 -10 9 -10 9 0 16 5 16 10 0 6 -4 10 -9 10 -6 0
-13 -4 -16 -10z"/>
<path d="M1140 3930 c0 -5 7 -10 15 -10 8 0 15 5 15 10 0 6 -7 10 -15 10 -8 0
-15 -4 -15 -10z"/>
<path d="M1258 3919 c-10 -10 -18 -23 -18 -29 0 -5 -8 -10 -17 -11 -12 0 -8
-4 10 -11 15 -5 27 -14 27 -20 0 -5 6 -3 13 4 18 18 57 75 57 82 0 14 -57 3
-72 -15z"/>
<path d="M6495 3930 c-3 -5 1 -10 9 -10 9 0 16 5 16 10 0 6 -4 10 -9 10 -6 0
-13 -4 -16 -10z"/>
<path d="M900 3919 c0 -5 -4 -7 -10 -4 -5 3 -10 -1 -10 -9 0 -20 29 -21 36 -1
4 8 10 12 15 9 5 -3 9 0 9 5 0 6 -9 11 -20 11 -11 0 -20 -5 -20 -11z"/>
<path d="M1195 3910 c-9 -15 -1 -23 21 -18 15 3 16 4 1 16 -11 9 -17 10 -22 2z"/>
<path d="M6335 3880 c3 -5 8 -10 11 -10 2 0 4 5 4 10 0 6 -5 10 -11 10 -5 0
-7 -4 -4 -10z"/>
<path d="M530 3820 c0 -5 -7 -10 -15 -10 -8 0 -15 -5 -15 -12 0 -6 3 -8 7 -5
3 4 12 2 19 -4 8 -6 14 -7 18 0 4 6 13 8 20 5 8 -3 17 -1 21 5 5 10 -7 15 -27
12 -5 0 -8 4 -8 9 0 6 -4 10 -10 10 -5 0 -10 -4 -10 -10z"/>
<path d="M6238 3823 c7 -3 16 -2 19 1 4 3 -2 6 -13 5 -11 0 -14 -3 -6 -6z"/>
<path d="M6326 3815 c-3 -8 -1 -15 4 -15 13 0 22 18 11 24 -5 3 -11 -1 -15 -9z"/>
<path d="M755 3800 c-3 -5 -2 -10 4 -10 5 0 13 5 16 10 3 6 2 10 -4 10 -5 0
-13 -4 -16 -10z"/>
<path d="M6288 3803 c7 -3 16 -2 19 1 4 3 -2 6 -13 5 -11 0 -14 -3 -6 -6z"/>
<path d="M923 3783 c-16 -3 -23 -11 -23 -29 0 -27 41 -75 48 -56 2 7 10 12 18
12 8 0 14 5 14 10 0 6 -7 10 -16 10 -12 0 -15 7 -12 30 3 17 2 29 -1 29 -3 -1
-16 -4 -28 -6z"/>
<path d="M1140 3767 c-30 -15 -37 -42 -15 -51 12 -4 19 0 22 14 3 11 9 17 14
14 5 -3 9 4 9 15 0 25 2 24 -30 8z"/>
<path d="M730 3758 c0 -30 13 -58 26 -58 12 0 12 4 -2 25 -8 13 -13 29 -9 35
3 5 1 10 -4 10 -6 0 -11 -6 -11 -12z"/>
<path d="M1022 3761 c-19 -12 -18 -45 1 -49 16 -3 57 27 57 41 0 8 -48 14 -58
8z"/>
<path d="M6480 3754 c0 -8 5 -12 10 -9 6 4 8 11 5 16 -9 14 -15 11 -15 -7z"/>
<path d="M1515 3740 c3 -5 8 -10 11 -10 2 0 4 5 4 10 0 6 -5 10 -11 10 -5 0
-7 -4 -4 -10z"/>
<path d="M796 3731 c-4 -5 -2 -12 3 -15 5 -4 12 -2 15 3 4 5 2 12 -3 15 -5 4
-12 2 -15 -3z"/>
<path d="M1310 3731 c0 -5 -13 -14 -30 -21 -37 -15 -61 -41 -42 -47 21 -8 2
-23 -29 -23 -20 0 -29 -4 -26 -12 2 -7 9 -13 16 -13 6 0 15 -6 19 -13 5 -7 26
-11 50 -10 40 1 51 18 11 18 -10 0 -19 4 -19 9 0 15 30 41 48 42 9 1 27 3 40
4 17 2 22 -2 18 -12 -4 -10 0 -13 11 -11 22 4 25 19 7 43 -12 16 -18 18 -34 7
-18 -11 -20 -10 -20 18 0 16 -4 30 -10 30 -5 0 -10 -4 -10 -9z"/>
<path d="M200 3716 c0 -17 14 -29 23 -20 8 8 -3 34 -14 34 -5 0 -9 -6 -9 -14z"/>
<path d="M323 3684 c-9 -25 11 -37 40 -23 33 15 34 25 5 33 -34 9 -38 8 -45
-10z"/>
<path d="M777 3675 c-3 -16 0 -24 7 -22 14 4 21 47 8 47 -5 0 -12 -11 -15 -25z"/>
<path d="M1080 3689 c-30 -4 -58 -5 -62 -3 -5 3 -8 -1 -8 -10 0 -20 130 -28
138 -8 8 23 -11 29 -68 21z"/>
<path d="M6326 3682 c-3 -6 -1 -14 5 -17 15 -10 25 3 12 16 -7 7 -13 7 -17 1z"/>
<path d="M6798 3673 c-31 -16 -35 -28 -13 -37 8 -3 15 0 15 6 0 6 3 9 6 6 5
-6 44 27 44 37 0 9 -24 3 -52 -12z"/>
<path d="M6704 3667 c-10 -27 3 -47 31 -47 29 0 35 27 8 37 -10 4 -21 11 -25
17 -4 6 -9 4 -14 -7z"/>
<path d="M207 3663 c-9 -9 -9 -43 1 -43 4 0 16 7 27 16 17 13 18 16 5 24 -18
12 -24 12 -33 3z"/>
<path d="M800 3645 c0 -8 5 -15 10 -15 6 0 10 7 10 15 0 8 -4 15 -10 15 -5 0
-10 -7 -10 -15z"/>
<path d="M6000 3650 c0 -5 7 -10 16 -10 8 0 12 5 9 10 -3 6 -10 10 -16 10 -5
0 -9 -4 -9 -10z"/>
<path d="M6424 3634 c-8 -30 8 -49 32 -40 13 5 15 9 6 18 -7 7 -12 20 -12 30
0 27 -19 22 -26 -8z"/>
<path d="M1518 3643 c-10 -2 -18 -11 -18 -19 0 -8 -10 -14 -25 -14 -31 0 -33
-20 -2 -21 12 0 16 -3 10 -6 -7 -2 -13 -9 -13 -14 0 -6 9 -5 21 2 47 24 78 28
89 11 5 -10 10 -12 10 -4 0 6 9 12 20 12 14 0 20 7 20 21 0 15 -6 20 -22 18
-13 -2 -33 2 -45 9 -12 7 -23 11 -25 11 -2 -1 -11 -3 -20 -6z"/>
<path d="M1680 3626 c0 -9 7 -12 20 -9 11 3 20 9 20 14 0 5 -9 9 -20 9 -11 0
-20 -6 -20 -14z"/>
<path d="M1749 3630 c-8 -6 -8 -13 1 -29 9 -18 14 -20 26 -10 31 25 8 60 -27
39z"/>
<path d="M6931 3623 c0 -7 -11 -13 -23 -14 -23 0 -23 0 1 -10 28 -11 34 -7 28
18 -3 10 -5 12 -6 6z"/>
<path d="M430 3600 c0 -5 4 -10 9 -10 6 0 13 5 16 10 3 6 -1 10 -9 10 -9 0
-16 -4 -16 -10z"/>
<path d="M1098 3603 c7 -3 16 -2 19 1 4 3 -2 6 -13 5 -11 0 -14 -3 -6 -6z"/>
<path d="M6200 3600 c0 -5 5 -10 10 -10 6 0 10 5 10 10 0 6 -4 10 -10 10 -5 0
-10 -4 -10 -10z"/>
<path d="M945 3590 c-3 -5 -1 -20 6 -32 12 -22 12 -22 19 -3 12 33 -9 62 -25
35z"/>
<path d="M305 3576 c-24 -26 -26 -36 -7 -36 21 0 34 20 24 37 -5 7 -10 7 -17
-1z"/>
<path d="M710 3580 c0 -5 7 -10 16 -10 8 0 12 5 9 10 -3 6 -10 10 -16 10 -5 0
-9 -4 -9 -10z"/>
<path d="M1400 3575 c0 -9 5 -15 11 -13 6 2 11 8 11 13 0 5 -5 11 -11 13 -6 2
-11 -4 -11 -13z"/>
<path d="M6057 3583 c-4 -3 3 -11 16 -18 14 -7 24 -8 29 -1 4 6 12 5 21 -3 16
-12 33 1 23 17 -6 10 -80 14 -89 5z"/>
<path d="M82 3563 c-19 -7 -4 -23 24 -23 27 0 32 15 8 24 -9 3 -16 6 -17 5 -1
0 -8 -3 -15 -6z"/>
<path d="M865 3550 c3 -5 8 -10 11 -10 2 0 4 5 4 10 0 6 -5 10 -11 10 -5 0 -7
-4 -4 -10z"/>
<path d="M6650 3536 c0 -21 16 -36 40 -36 5 0 2 14 -6 30 -19 36 -34 39 -34 6z"/>
<path d="M6530 3535 c0 -8 6 -15 14 -15 22 0 28 17 10 24 -22 9 -24 8 -24 -9z"/>
<path d="M566 3531 c-3 -5 1 -12 10 -15 20 -8 29 -1 19 13 -8 13 -22 14 -29 2z"/>
<path d="M1318 3518 c-21 -11 -38 -26 -38 -34 0 -12 4 -12 20 -4 28 15 62 4
103 -33 20 -18 40 -33 46 -34 12 -3 61 43 61 58 0 18 -31 43 -39 31 -9 -15
-71 -12 -71 4 0 11 -32 37 -42 33 -2 -1 -20 -10 -40 -21z"/>
<path d="M1720 3511 c0 -12 -4 -21 -10 -21 -5 0 -10 -7 -10 -15 0 -8 5 -15 10
-15 6 0 10 -12 10 -27 0 -19 -3 -24 -8 -15 -7 10 -15 10 -38 1 -42 -17 -66
-18 -60 -2 4 9 -3 13 -19 13 -13 0 -27 5 -30 10 -13 21 -26 9 -23 -22 3 -31 5
-33 39 -30 29 3 39 -2 59 -28 23 -30 23 -30 42 -10 21 23 30 24 45 9 8 -8 15
-4 27 12 20 29 20 53 1 69 -10 8 -14 26 -13 48 2 21 -2 37 -9 39 -8 3 -13 -4
-13 -16z"/>
<path d="M6180 3510 c20 -20 70 -28 70 -12 0 11 -46 32 -70 32 -20 0 -20 0 0
-20z"/>
<path d="M633 3505 c-7 -8 -9 -16 -4 -19 5 -3 12 1 15 10 8 22 4 25 -11 9z"/>
<path d="M1557 3506 c-3 -8 0 -20 8 -26 18 -15 26 1 10 23 -10 15 -14 15 -18
3z"/>
<path d="M6397 3506 c-5 -12 1 -16 24 -16 20 0 29 4 27 13 -7 18 -45 20 -51 3z"/>
<path d="M6827 3513 c-12 -11 -8 -23 8 -23 8 0 15 7 15 15 0 16 -12 20 -23 8z"/>
<path d="M6277 3497 c-4 -10 2 -26 16 -41 19 -20 25 -22 40 -11 21 15 22 25 2
25 -8 0 -15 5 -15 10 0 6 -6 10 -14 10 -8 0 -16 5 -18 12 -3 8 -7 6 -11 -5z"/>
<path d="M6000 3485 c0 -8 5 -15 10 -15 6 0 10 7 10 15 0 8 -4 15 -10 15 -5 0
-10 -7 -10 -15z"/>
<path d="M6748 3493 c7 -3 16 -2 19 1 4 3 -2 6 -13 5 -11 0 -14 -3 -6 -6z"/>
<path d="M7053 3470 c-3 -39 13 -39 19 0 3 17 0 30 -6 30 -6 0 -12 -14 -13
-30z"/>
<path d="M1150 3480 c0 -5 5 -10 10 -10 6 0 10 5 10 10 0 6 -4 10 -10 10 -5 0
-10 -4 -10 -10z"/>
<path d="M800 3460 c0 -5 5 -10 10 -10 6 0 10 5 10 10 0 6 -4 10 -10 10 -5 0
-10 -4 -10 -10z"/>
<path d="M1080 3450 c0 -6 -33 -10 -79 -10 -72 0 -110 -11 -78 -22 17 -7 138
-1 159 7 22 9 32 35 13 35 -8 0 -15 -4 -15 -10z"/>
<path d="M6110 3451 c0 -18 12 -41 22 -41 5 0 16 -7 25 -15 8 -9 20 -14 27
-12 21 7 11 31 -23 54 -36 25 -51 29 -51 14z"/>
<path d="M110 3424 c0 -9 7 -14 17 -12 25 5 28 28 4 28 -12 0 -21 -6 -21 -16z"/>
<path d="M190 3430 c0 -5 9 -10 21 -10 11 0 17 5 14 10 -3 6 -13 10 -21 10 -8
0 -14 -4 -14 -10z"/>
<path d="M1207 3433 c-14 -13 -6 -33 12 -33 19 0 35 23 24 34 -8 8 -28 8 -36
-1z"/>
<path d="M6480 3430 c0 -5 10 -10 23 -10 18 0 19 2 7 10 -19 13 -30 13 -30 0z"/>
<path d="M5991 3414 c-12 -14 -12 -17 0 -25 17 -11 21 -11 37 -1 15 10 6 42
-12 42 -6 -1 -17 -8 -25 -16z"/>
<path d="M6293 3412 c-13 -2 -23 -7 -23 -12 0 -5 -10 -10 -22 -12 -15 -2 -23
-10 -23 -23 0 -16 -6 -19 -26 -17 -16 1 -29 -3 -32 -12 -7 -19 22 -29 57 -20
20 5 26 2 26 -10 0 -15 14 -20 48 -19 6 1 12 -7 13 -16 0 -10 4 -7 10 9 8 20
6 27 -13 42 -13 10 -33 21 -45 24 -13 3 -23 10 -23 14 0 4 10 8 23 8 12 1 37
5 55 9 31 7 32 9 15 23 -10 8 -28 14 -40 12z"/>
<path d="M334 3393 c2 -11 13 -19 31 -21 21 -3 26 0 22 12 -3 8 -1 17 6 20 7
2 -4 5 -25 5 -29 1 -36 -2 -34 -16z"/>
<path d="M6090 3399 c0 -6 -7 -9 -15 -5 -9 3 -15 0 -15 -8 0 -16 41 -29 53
-17 9 9 -1 41 -14 41 -5 0 -9 -5 -9 -11z"/>
<path d="M6438 3403 c6 -2 18 -2 25 0 6 3 1 5 -13 5 -14 0 -19 -2 -12 -5z"/>
<path d="M6751 3399 c-1 -9 6 -20 15 -23 8 -3 14 -14 13 -23 -3 -32 1 -45 13
-41 6 2 12 19 12 37 1 34 -16 57 -33 47 -5 -3 -12 0 -14 6 -4 8 -6 7 -6 -3z"/>
<path d="M400 3380 c0 -5 5 -10 10 -10 6 0 10 5 10 10 0 6 -4 10 -10 10 -5 0
-10 -4 -10 -10z"/>
<path d="M550 3370 c0 -11 7 -20 15 -20 8 0 15 5 15 10 0 6 4 10 10 10 5 0 7
-6 4 -14 -8 -20 21 -27 43 -11 17 14 17 14 0 15 -10 0 -16 4 -13 9 3 5 -4 11
-17 15 -41 11 -57 7 -57 -14z"/>
<path d="M1110 3378 c0 -3 -3 -13 -6 -21 -4 -11 2 -16 18 -19 13 -2 22 -7 20
-13 -4 -12 -36 -7 -40 6 -5 13 -40 11 -49 -3 -4 -7 -14 -13 -20 -14 -7 -1 -25
-2 -40 -2 -25 -2 -25 -3 -10 -20 25 -28 21 -35 -18 -29 -19 3 -35 4 -35 2 0
-2 -3 -10 -6 -18 -7 -19 28 -40 51 -31 9 4 14 13 11 21 -4 11 -1 13 14 8 16
-5 20 -2 20 14 0 12 6 21 13 22 6 0 29 2 50 4 27 3 40 0 44 -11 3 -8 12 -13
21 -9 8 3 20 0 28 -6 9 -7 18 -7 33 1 29 15 26 27 -9 45 -34 17 -37 27 -15 49
27 26 17 37 -30 34 -25 -2 -45 -6 -45 -10z"/>
<path d="M1253 3363 c-31 -6 -29 -23 2 -23 16 0 25 6 25 15 0 8 -1 14 -2 14
-2 -1 -13 -4 -25 -6z"/>
<path d="M6332 3361 c-11 -7 -10 -10 3 -15 19 -7 35 0 35 15 0 11 -20 12 -38
0z"/>
<path d="M6496 3339 c-5 -24 -1 -35 17 -49 20 -17 23 -17 34 -3 9 12 7 22 -10
49 -12 19 -25 34 -28 34 -4 0 -9 -14 -13 -31z"/>
<path d="M30 3351 c0 -5 5 -11 11 -13 6 -2 12 -24 13 -48 2 -42 5 -46 36 -41
6 0 10 21 10 44 0 37 -4 46 -25 55 -31 14 -45 15 -45 3z"/>
<path d="M1560 3351 c0 -6 5 -13 10 -16 6 -3 10 1 10 9 0 9 -4 16 -10 16 -5 0
-10 -4 -10 -9z"/>
<path d="M6430 3350 c20 -13 40 -13 40 0 0 6 -12 10 -27 10 -22 0 -25 -2 -13
-10z"/>
<path d="M6928 3353 c-4 -7 -4 -14 0 -51 3 -22 22 -2 22 23 0 24 -15 42 -22
28z"/>
<path d="M6030 3340 c-19 -5 -38 -6 -42 -4 -5 3 -8 0 -8 -6 0 -6 -4 -9 -8 -6
-5 3 -31 -18 -58 -47 -38 -39 -61 -55 -98 -65 -26 -7 -52 -10 -57 -7 -5 4 -9
0 -9 -7 0 -9 -3 -9 -10 2 -6 10 -10 11 -10 3 0 -7 -7 -13 -15 -13 -23 0 -18
-38 7 -51 57 -30 67 -78 16 -70 -5 0 -8 -8 -8 -19 0 -11 5 -20 10 -20 6 0 10
-19 9 -42 -1 -35 -2 -38 -8 -18 -6 23 -8 23 -12 5 -7 -23 -1 -47 10 -41 4 3 5
-8 3 -25 -3 -23 -9 -29 -28 -29 -17 0 -28 -8 -34 -26 -10 -26 -5 -48 10 -39 4
3 11 -2 14 -11 5 -13 9 -14 21 -4 8 7 15 9 15 4 -1 -15 -24 -40 -42 -47 -10
-3 -18 -16 -18 -27 0 -12 -11 -31 -25 -44 -26 -24 -33 -46 -15 -46 6 0 10 -9
10 -21 0 -15 -5 -19 -15 -15 -11 4 -15 -2 -15 -20 0 -14 -4 -23 -9 -20 -5 4
-9 -33 -8 -84 0 -56 -4 -95 -11 -102 -15 -15 -16 -68 -2 -68 6 0 10 -9 10 -20
0 -11 4 -20 9 -20 5 0 12 -9 15 -20 3 -11 9 -30 12 -41 5 -19 3 -21 -17 -17
-20 3 -24 0 -26 -21 0 -14 -6 -27 -12 -29 -6 -2 -18 -19 -26 -38 -15 -37 -35
-43 -80 -22 -22 10 -28 9 -43 -7 -16 -17 -16 -17 0 -12 11 4 15 2 12 -6 -2 -7
-13 -13 -24 -13 -10 0 -17 4 -14 7 7 12 -15 21 -36 14 -20 -6 -29 -45 -10 -45
6 0 10 -11 10 -25 0 -14 6 -25 13 -25 12 0 67 -71 67 -87 0 -5 11 -16 25 -23
17 -9 25 -22 25 -41 0 -15 5 -29 12 -31 8 -3 14 -33 16 -81 2 -42 8 -77 13
-77 5 0 9 -11 9 -24 0 -13 7 -29 15 -36 25 -20 17 -56 -20 -94 -24 -25 -44
-36 -63 -36 -20 0 -33 -7 -42 -25 -7 -14 -31 -33 -52 -42 -21 -9 -38 -21 -38
-25 0 -4 -20 -7 -45 -6 -24 0 -50 -3 -57 -9 -35 -28 -178 -26 -178 2 0 9 -9
12 -26 9 -15 -3 -23 -1 -20 5 4 5 -4 13 -16 17 -22 7 -22 7 -3 15 18 7 18 8
-5 9 l-25 2 25 8 25 8 -27 1 c-16 1 -28 6 -28 12 0 5 -4 7 -10 4 -6 -4 -10 9
-11 32 -1 38 -1 38 -9 8 l-8 -30 -1 28 c0 16 -6 27 -13 26 -32 -4 -38 3 -39
39 0 30 -2 33 -9 17 -9 -19 -9 -19 -16 3 -5 17 -11 21 -28 16 -29 -9 -28 -8
-30 -55 0 -26 4 -44 12 -47 13 -4 17 -42 4 -42 -5 0 -9 -7 -9 -15 0 -8 6 -15
12 -15 6 0 11 -10 10 -22 -3 -34 8 -46 16 -18 7 23 7 23 8 -7 1 -17 8 -38 16
-47 8 -8 15 -22 15 -31 0 -9 5 -13 10 -10 6 4 10 -7 10 -25 0 -18 -4 -29 -10
-25 -5 3 -10 0 -11 -7 -1 -13 -7 -70 -11 -100 -1 -9 -6 -14 -10 -12 -4 3 -8
-4 -8 -16 0 -11 -7 -23 -15 -26 -8 -4 -15 -11 -15 -18 0 -23 -46 -67 -75 -72
-39 -7 -52 -19 -60 -55 -4 -16 -13 -29 -21 -29 -8 0 -14 -4 -14 -10 0 -5 -11
-12 -25 -16 -18 -4 -25 -13 -25 -30 0 -19 -5 -24 -26 -24 -14 0 -33 -7 -42
-16 -14 -15 -16 -14 -24 7 -12 31 -26 39 -70 39 -21 0 -38 5 -38 10 0 6 -11
10 -25 10 -14 0 -28 7 -31 15 -4 8 -15 15 -25 15 -10 0 -19 7 -19 15 0 8 -4
15 -9 15 -5 0 -11 8 -15 17 -7 23 -25 50 -53 82 -14 16 -23 39 -23 59 0 20 -4
31 -10 27 -7 -4 -10 28 -9 97 1 128 -8 158 -52 158 -18 0 -29 3 -26 6 9 9 -37
44 -58 44 -9 0 -23 7 -31 15 -9 8 -25 15 -37 16 -21 0 -21 1 -2 9 17 7 14 9
-13 9 -18 1 -40 8 -48 16 -9 8 -24 15 -35 15 -10 0 -19 5 -19 10 0 6 -15 10
-33 10 -19 0 -37 3 -41 7 -4 5 -17 9 -29 9 -12 1 -37 5 -54 9 -27 6 -33 4 -33
-9 0 -9 -6 -16 -14 -16 -9 0 -12 -7 -9 -20 3 -12 -1 -28 -10 -38 -9 -9 -15
-21 -14 -27 0 -5 -12 -13 -29 -16 l-29 -7 30 -2 c30 -2 30 -2 5 -10 -29 -9
-96 -3 -126 12 -11 5 -28 23 -38 39 -9 16 -25 29 -34 29 -15 0 -15 2 -2 10 12
8 12 10 -5 10 -17 0 -17 2 -5 10 12 8 9 10 -12 10 -22 0 -28 5 -28 21 0 11 -4
17 -10 14 -6 -3 -10 5 -10 19 0 17 -4 24 -14 20 -8 -3 -16 3 -19 16 -3 11 -9
20 -14 19 -22 -4 -33 3 -33 21 0 18 -4 20 -42 14 -24 -4 -50 -13 -59 -20 -8
-8 -21 -14 -27 -14 -6 0 -16 -8 -22 -17 -8 -13 -13 -14 -16 -5 -3 6 -21 12
-39 12 -24 0 -34 5 -38 20 -5 21 -41 28 -52 10 -10 -16 -23 -12 -30 9 -4 12
-12 17 -28 14 -16 -3 -26 3 -39 25 -21 36 -76 52 -94 27 -16 -21 -21 -19 -27
15 -6 30 -20 36 -69 32 -11 -1 -18 5 -18 17 0 11 -12 24 -31 31 -17 7 -35 24
-40 37 -5 13 -14 21 -19 18 -6 -4 -23 1 -37 10 -17 11 -37 15 -58 12 -32 -5
-33 -5 -40 39 -3 24 -10 44 -16 44 -5 0 -9 20 -9 44 0 47 -20 67 -46 45 -10
-8 -14 -8 -14 0 0 6 5 11 10 11 22 0 -15 39 -40 42 -17 2 -26 10 -28 25 -2 12
-13 25 -25 29 -27 9 -46 33 -47 59 0 11 -14 35 -30 53 -22 25 -30 43 -30 71 0
21 -6 44 -13 50 -16 13 -28 5 -20 -15 3 -8 0 -14 -5 -14 -6 0 -12 19 -14 42
-3 38 -6 43 -36 50 -27 7 -31 12 -23 26 6 11 4 26 -6 47 -9 16 -16 45 -17 65
-1 26 -7 37 -25 46 -13 7 -30 26 -39 44 -8 18 -23 35 -31 38 -9 3 -21 12 -26
19 -8 11 -17 12 -35 4 -17 -6 -19 -10 -8 -10 9 -1 21 -8 26 -18 5 -9 16 -14
23 -11 10 4 14 -4 16 -26 0 -17 -1 -25 -4 -18 -3 7 -24 12 -55 12 -49 0 -50 1
-44 26 6 24 5 25 -26 22 -39 -4 -50 21 -22 49 16 16 18 16 32 -5 21 -31 36
-28 29 7 -5 25 -3 30 16 33 32 4 22 23 -13 23 -16 0 -29 5 -27 10 1 6 29 10
63 10 41 0 61 4 61 12 0 7 -4 10 -9 7 -4 -3 -8 9 -8 25 0 17 5 31 10 31 13 0
13 11 0 30 -9 13 -12 13 -23 -2 -12 -15 -56 -22 -55 -8 2 22 -5 30 -27 30 -33
0 -45 -26 -41 -89 4 -51 -5 -73 -21 -49 -4 7 -8 31 -8 53 0 36 -2 40 -22 37
-13 -2 -23 2 -23 7 0 6 -7 11 -15 11 -9 0 -12 -6 -9 -15 4 -8 1 -22 -6 -30 -6
-8 -9 -19 -5 -25 3 -5 1 -10 -4 -10 -6 0 -11 -9 -11 -21 0 -11 -4 -17 -10 -14
-11 7 -13 -45 -4 -94 6 -29 9 -31 49 -31 24 0 45 -5 47 -11 3 -9 21 -15 51
-18 14 -2 7 -21 -8 -21 -8 0 -19 -9 -25 -20 -6 -11 -16 -20 -22 -20 -6 0 -8 3
-5 6 10 10 -13 45 -24 38 -6 -3 -8 -17 -5 -30 5 -20 3 -24 -15 -24 -11 0 -27
7 -36 16 -14 14 -14 16 3 29 18 13 18 14 -2 42 -31 41 -52 42 -50 1 1 -46 -18
-47 -22 -1 -2 21 -8 43 -14 50 -7 9 -5 15 8 20 11 4 24 12 30 17 19 18 -2 65
-28 66 -16 0 -7 -19 10 -23 11 -3 7 -5 -10 -6 -43 -2 -58 -12 -58 -37 0 -26
-18 -32 -38 -12 -9 9 -15 9 -24 0 -7 -7 -26 -12 -43 -12 -18 0 -34 -3 -37 -6
-12 -11 5 -44 23 -44 11 0 19 -5 19 -11 0 -8 5 -7 16 2 13 10 17 10 25 -2 6
-10 9 -10 9 -1 0 6 11 12 25 12 19 0 25 -5 25 -22 0 -18 -2 -20 -10 -8 -7 12
-13 9 -30 -13 -17 -22 -25 -25 -40 -17 -10 6 -40 10 -67 10 -26 0 -61 1 -78 2
-27 3 -30 0 -30 -27 0 -18 -5 -30 -12 -29 -38 3 -43 5 -43 18 0 8 6 16 13 19
7 2 8 8 3 13 -5 5 -11 4 -13 -3 -7 -19 -22 -16 -56 13 l-31 26 -20 -41 -21
-40 -34 34 c-36 37 -71 45 -91 20 -14 -17 -5 -35 19 -35 12 0 20 -9 24 -27 6
-35 2 -43 -26 -43 -16 0 -19 -3 -8 -9 7 -5 11 -13 7 -19 -3 -5 2 -13 11 -16
14 -6 14 -9 -4 -29 -11 -12 -23 -31 -27 -42 -6 -16 -9 -17 -16 -5 -7 11 -12 7
-22 -16 -7 -16 -19 -34 -27 -40 -8 -6 -11 -16 -7 -23 12 -18 -4 -51 -24 -51
-22 0 -35 16 -20 25 14 9 3 25 -17 25 -11 0 -14 -6 -10 -21 3 -12 0 -22 -9
-26 -8 -3 -14 -9 -14 -14 0 -13 -58 -69 -70 -69 -6 0 -9 -5 -7 -11 1 -6 -4
-14 -12 -16 -9 -4 -11 0 -8 13 3 11 9 36 13 57 5 31 10 37 30 37 13 0 24 5 24
10 0 6 -7 10 -15 10 -8 0 -15 3 -15 8 0 4 -19 6 -42 4 -32 -4 -49 -13 -78 -43
-20 -22 -43 -39 -50 -39 -10 0 -10 3 0 15 10 12 10 15 -4 15 -9 0 -16 4 -16
10 0 5 -11 12 -25 16 -28 7 -32 29 -9 59 13 17 16 18 24 5 5 -8 10 -18 10 -21
0 -3 24 -6 52 -6 39 -1 57 4 68 17 9 10 29 20 45 21 17 2 33 8 36 12 3 4 32
11 64 14 45 5 59 10 63 25 2 10 13 18 24 18 33 0 14 24 -21 27 -21 2 -34 -2
-37 -12 -4 -10 -20 -15 -45 -15 -28 0 -39 -4 -39 -15 0 -18 -52 -20 -79 -3
-27 17 -71 -3 -65 -30 3 -10 -2 -24 -11 -32 -14 -12 -18 -12 -26 1 -14 22 -11
37 9 42 10 2 2 7 -20 11 -21 5 -38 12 -38 18 0 17 -52 64 -57 51 -6 -16 -105
-17 -120 -2 -13 13 -35 3 -31 -14 3 -14 -21 -59 -36 -69 -20 -13 -36 -8 -36
11 0 12 9 20 29 24 l28 6 -10 51 c-12 59 -41 85 -63 55 -17 -23 -9 -35 22 -35
15 0 23 -4 19 -10 -4 -6 -10 -8 -15 -5 -4 3 -10 -4 -13 -15 -3 -12 -14 -20
-26 -20 -16 0 -21 -6 -21 -24 0 -24 -23 -56 -41 -56 -5 0 -9 6 -9 14 0 23 -46
46 -90 44 -31 -1 -40 -5 -35 -15 3 -8 5 -19 5 -24 0 -5 8 -9 19 -9 10 0 26
-11 35 -25 16 -24 16 -25 -5 -25 -13 0 -31 7 -41 17 -17 15 -18 15 -18 0 0
-10 7 -17 15 -17 8 0 15 -7 15 -15 0 -9 9 -15 24 -15 13 0 26 -5 28 -11 2 -6
13 7 23 30 19 38 22 40 55 36 100 -12 137 -19 157 -32 21 -14 22 -13 33 27 8
29 18 44 37 51 48 18 60 5 59 -61 -1 -33 -3 -60 -6 -60 -3 0 -6 -9 -7 -19 -2
-27 22 -44 57 -43 28 1 30 -2 30 -34 0 -20 4 -44 10 -54 15 -28 -16 -34 -35
-7 -10 14 -15 17 -15 7 0 -8 -7 -2 -15 14 -8 15 -15 35 -15 43 0 8 -4 12 -9 8
-5 -3 -13 0 -16 6 -4 5 -13 8 -21 5 -8 -3 -14 1 -14 9 0 7 -5 26 -10 41 l-10
26 -25 -26 c-14 -15 -23 -32 -20 -37 9 -14 -21 -40 -39 -33 -9 3 -16 11 -16
16 0 6 -9 8 -19 5 -12 -3 -22 1 -26 11 -4 12 -8 13 -18 3 -9 -9 -9 -14 3 -22
11 -8 9 -8 -10 -3 -14 4 -30 7 -37 7 -6 0 -14 11 -18 25 -5 19 -8 22 -20 12
-11 -9 -15 -9 -15 -1 0 6 -9 11 -20 11 -10 0 -23 7 -28 16 -7 12 -17 15 -36
10 -24 -6 -26 -10 -26 -61 0 -51 2 -55 23 -55 13 0 33 9 45 21 23 21 27 18 34
-25 4 -27 22 -26 26 2 3 20 19 28 47 22 5 -1 22 -2 37 -2 27 -1 41 -18 16 -18
-9 0 -8 -3 2 -10 12 -8 12 -10 -3 -16 -9 -3 -14 -10 -11 -15 8 -13 -10 -11
-23 2 -23 23 -42 3 -36 -36 6 -40 -8 -59 -39 -49 -9 2 -19 0 -22 -5 -4 -6 -13
-8 -21 -5 -7 3 -22 -4 -32 -15 -9 -12 -24 -21 -32 -21 -8 0 -12 -2 -9 -5 3 -3
24 -2 47 4 41 9 46 6 35 -23 -5 -12 -15 -15 -45 -10 l-39 7 0 -77 0 -77 34 6
c20 4 36 2 40 -4 11 -17 23 -13 29 10 3 11 15 23 26 26 18 4 21 13 21 55 0 29
-7 62 -17 79 -20 33 -12 49 12 25 18 -17 28 -19 63 -10 20 6 22 11 17 44 -7
44 6 51 78 43 42 -5 46 -4 49 18 2 16 11 25 26 27 12 2 22 -1 22 -7 0 -6 9
-11 19 -11 41 0 36 -39 -7 -60 l-27 -13 26 -7 c31 -9 79 -2 79 11 0 16 38 10
44 -7 9 -22 9 -22 -21 -37 -30 -14 -87 -11 -78 4 4 5 -3 9 -14 9 -12 0 -21 -7
-21 -15 0 -10 -12 -15 -37 -17 -52 -2 -59 -1 -89 6 -23 6 -26 4 -21 -13 3 -12
0 -18 -7 -15 -6 2 -21 -5 -33 -16 -12 -11 -27 -20 -33 -20 -5 0 -10 -9 -10
-20 0 -11 6 -20 13 -20 16 0 43 -47 33 -57 -4 -4 -10 -2 -14 4 -13 20 -52 11
-53 -12 -4 -67 2 -168 11 -184 12 -24 13 -41 1 -22 -8 12 -16 13 -45 4 -30 -9
-36 -9 -36 3 0 8 7 14 15 14 8 0 14 5 12 12 -1 7 5 12 13 13 13 0 16 8 11 33
-2 10 -51 12 -51 1 0 -5 -18 -12 -40 -15 -37 -6 -40 -9 -40 -40 0 -19 5 -34
10 -34 6 0 10 -7 10 -16 0 -9 13 -21 30 -27 16 -6 29 -18 28 -27 -3 -34 3 -49
19 -54 10 -3 0 -3 -22 0 -22 3 -41 9 -43 13 -1 5 -9 17 -17 27 -13 18 -14 17
-15 -14 0 -22 8 -40 24 -55 13 -12 26 -32 30 -44 4 -13 12 -23 17 -23 5 0 9
-4 9 -10 0 -5 -9 -10 -20 -10 -11 0 -20 -6 -20 -14 0 -8 -7 -16 -15 -20 -8 -3
-15 -17 -15 -33 1 -25 2 -26 11 -9 9 15 13 16 20 5 13 -21 11 -29 -7 -29 -10
0 -14 -6 -10 -15 3 -9 0 -15 -9 -15 -18 0 -20 -20 -2 -20 6 0 20 -11 29 -24
17 -23 16 -24 -2 -29 -11 -3 -18 0 -17 5 1 6 -4 13 -10 15 -10 3 -13 -15 -13
-71 l0 -76 35 0 c33 0 34 -1 23 -20 -9 -14 -20 -19 -35 -15 l-22 5 0 -483 -1
-483 29 -22 30 -22 3716 0 3715 0 0 676 0 675 -28 -3 c-15 -2 -29 2 -31 7 -1
6 12 9 30 8 20 -1 25 1 11 4 -12 2 -20 9 -17 14 10 16 -6 33 -17 18 -8 -11 -9
-11 -5 1 2 10 13 14 30 12 l27 -3 0 71 c0 67 -1 71 -20 65 -15 -5 -20 -2 -20
12 0 15 -2 16 -10 3 -8 -12 -10 -11 -10 6 0 11 5 25 12 32 9 9 8 12 -8 12 -11
0 -30 9 -42 20 -27 25 -42 25 -42 0 0 -11 5 -20 10 -20 19 0 10 -38 -11 -43
-19 -5 -21 -2 -17 44 1 27 0 49 -4 49 -4 0 -15 16 -24 36 -11 23 -20 31 -24
23 -13 -20 -37 11 -32 41 3 22 8 26 28 22 13 -2 24 -11 24 -19 0 -12 3 -13 14
-4 12 10 19 8 35 -8 12 -12 21 -27 21 -34 0 -16 32 -47 48 -47 7 0 12 -5 12
-11 0 -5 6 -7 13 -3 6 4 9 4 5 -1 -10 -10 10 -35 28 -35 17 0 18 42 2 58 -7 7
-18 12 -26 12 -8 0 -24 8 -37 19 -31 24 -15 41 37 41 37 0 38 1 38 34 0 29 -4
34 -28 38 -32 5 -54 -13 -50 -40 2 -10 -3 -17 -12 -17 -11 0 -16 14 -18 51 -3
46 -1 51 18 49 11 -1 26 -7 32 -13 7 -7 22 -12 35 -12 19 0 23 5 23 34 0 30
-4 34 -31 40 -17 3 -47 6 -66 6 -29 0 -34 -3 -29 -17 4 -11 -3 -7 -19 10 -14
15 -35 27 -45 27 -11 0 -20 4 -20 9 0 11 53 1 62 -13 5 -8 18 -5 43 8 24 13
39 16 46 9 5 -5 21 -8 35 -5 23 4 24 8 24 80 0 58 -4 78 -16 87 -18 13 -64 8
-64 -6 0 -5 -7 -9 -15 -9 -9 0 -18 -7 -21 -15 -4 -8 -12 -15 -20 -15 -8 0 -14
-4 -14 -10 0 -5 6 -10 13 -10 8 0 19 -11 25 -25 10 -21 9 -27 -4 -32 -8 -3
-20 -1 -27 6 -6 6 -7 11 -2 11 5 0 1 6 -9 13 -15 11 -16 17 -7 35 17 33 13 52
-14 62 -14 5 -25 12 -25 15 0 4 5 3 10 0 14 -8 48 3 53 18 2 7 2 2 0 -10 -2
-13 0 -23 5 -23 4 0 8 10 9 21 3 30 13 37 24 16 6 -9 21 -17 34 -17 20 0 25 5
25 25 0 19 -5 25 -23 25 -12 0 -28 9 -35 20 -15 25 -38 26 -51 3 -9 -15 -10
-16 -11 -2 0 24 34 87 37 69 3 -11 19 -16 63 -17 l60 -1 0 39 c0 21 -4 39 -10
39 -5 0 -10 7 -10 15 0 11 -8 13 -30 8 -25 -5 -29 -3 -24 11 3 9 2 16 -4 16
-6 0 -12 -6 -15 -12 -4 -10 -7 -10 -18 0 -7 6 -24 12 -37 12 -20 0 -22 -3 -13
-14 9 -11 7 -12 -13 -9 -18 4 -23 11 -21 29 1 13 -2 24 -6 24 -5 0 -9 -7 -9
-15 0 -19 -29 -19 -50 0 -13 12 -23 13 -43 6 -33 -13 -37 -7 -37 50 0 26 -4
50 -9 54 -5 3 -21 -9 -34 -26 -24 -31 -25 -32 -36 -10 -7 11 -17 21 -24 21 -7
0 -23 9 -35 20 -12 11 -28 20 -37 20 -12 0 -7 8 14 26 37 30 72 26 63 -8 -3
-13 -1 -19 5 -15 6 4 13 21 15 37 6 37 -26 68 -48 49 -8 -6 -13 -14 -12 -17 2
-20 -4 -21 -27 -6 -14 9 -25 13 -25 8 0 -4 -7 1 -15 12 -14 19 -14 19 -15 -3
0 -12 -3 -28 -6 -37 -4 -10 -1 -16 9 -16 17 0 30 -87 15 -106 -4 -6 -5 -14 -1
-17 3 -4 1 -7 -5 -7 -7 0 -12 6 -12 13 0 7 -5 5 -10 -5 -6 -9 -18 -15 -28 -13
-9 2 -28 4 -41 4 -19 1 -21 4 -12 15 8 10 9 16 1 21 -12 7 -14 -4 -11 -62 2
-27 -2 -44 -12 -50 -8 -4 -16 -13 -18 -20 -3 -8 -17 -5 -49 9 -25 12 -39 23
-33 25 19 7 -1 39 -27 46 -18 5 -21 1 -20 -21 3 -45 0 -62 -10 -62 -5 0 -10 7
-10 15 0 8 -3 14 -7 14 -22 -4 -33 3 -33 17 0 20 -39 58 -63 62 -25 4 -32 -26
-12 -48 10 -11 21 -18 25 -17 15 4 90 -65 90 -83 0 -32 -14 -30 -40 5 -14 19
-33 36 -42 38 -15 4 -18 -2 -18 -42 0 -55 -4 -61 -31 -54 -15 4 -17 8 -8 14
10 6 10 13 1 34 -7 14 -12 37 -12 50 0 14 -4 25 -10 25 -5 0 -10 10 -11 23 0
12 -3 16 -6 10 -9 -23 -23 -14 -23 15 0 15 -4 34 -10 42 -8 12 -10 12 -16 -3
-8 -21 -44 -23 -44 -2 0 8 4 15 9 15 5 0 11 14 15 30 5 30 26 42 26 16 0 -8
11 -17 25 -20 14 -4 25 -11 25 -16 0 -14 12 -12 34 5 18 14 18 14 0 37 -16 20
-28 24 -72 23 -39 0 -51 -3 -47 -13 3 -7 0 -10 -5 -7 -6 3 -10 14 -10 23 0 14
9 17 50 17 32 0 50 4 50 12 0 6 6 13 13 16 17 6 -22 39 -88 73 -52 26 -54 29
-41 48 7 12 24 22 37 23 13 1 19 0 12 -3 -16 -7 19 -42 44 -44 39 -5 53 0 53
19 0 23 -22 40 -28 23 -5 -17 -29 -15 -36 4 -9 24 -7 34 8 34 8 0 17 12 22 28
5 20 8 23 11 10 3 -10 10 -18 17 -18 13 0 46 -31 46 -43 0 -4 -7 -7 -15 -7 -9
0 -15 -9 -15 -21 0 -16 3 -19 13 -11 8 7 19 3 36 -14 22 -20 23 -24 8 -30 -9
-3 -14 -11 -10 -18 3 -6 1 -6 -8 2 -20 18 -43 15 -57 -9 -13 -20 -12 -21 12
-15 17 4 27 2 28 -6 0 -7 2 -17 3 -23 2 -5 3 -16 4 -22 0 -7 12 -13 25 -13 20
0 23 -4 19 -21 -4 -16 -2 -20 8 -17 8 3 14 11 14 19 0 8 4 19 8 25 6 11 -7 29
-28 36 -11 4 -8 27 7 45 7 9 16 10 28 3 11 -6 21 -5 27 1 7 7 15 4 25 -9 18
-27 71 -42 62 -18 -3 9 -10 14 -14 11 -10 -6 -40 39 -40 59 0 7 -7 17 -16 20
-17 7 -37 -1 -30 -12 2 -4 -7 -8 -20 -8 -15 -1 -24 4 -24 12 0 8 -7 17 -16 21
-12 4 -11 8 8 17 36 18 34 42 -6 61 -35 17 -40 35 -10 35 8 0 14 5 14 10 0 6
7 10 15 10 8 0 15 -4 15 -10 0 -5 4 -10 9 -10 13 0 21 39 9 46 -15 10 -56 -5
-77 -28 -18 -19 -22 -20 -43 -6 -14 9 -37 13 -59 10 -27 -3 -40 1 -50 15 -21
28 -52 41 -74 32 -11 -4 -15 -8 -9 -8 6 -1 26 -15 45 -32 19 -17 44 -35 56
-39 16 -7 20 -14 16 -32 -4 -13 -11 -26 -17 -30 -17 -11 -76 -9 -76 2 0 6 -12
15 -26 20 -14 6 -22 14 -19 20 3 5 0 11 -7 11 -53 5 -67 16 -54 45 14 31 24
30 32 -1 6 -25 37 -35 49 -15 3 6 2 10 -4 10 -6 0 -8 6 -5 14 3 7 -2 16 -10
19 -8 3 -18 22 -22 41 -4 22 -12 36 -21 36 -8 0 -11 5 -8 10 3 6 16 10 28 10
13 0 18 3 11 10 -14 14 -54 1 -54 -18 0 -13 -3 -12 -20 3 -13 12 -27 15 -45
11 -22 -6 -25 -3 -25 19 0 14 -4 25 -10 25 -5 0 -10 5 -10 10 0 6 16 10 35 10
34 0 49 20 25 35 -6 4 -5 13 3 26 10 16 9 21 -3 29 -8 5 -25 7 -38 3 -12 -3
-29 0 -37 7 -8 7 -22 10 -30 6 -10 -4 -19 2 -24 17 -25 65 -9 114 19 62 12
-22 12 -28 1 -34 -7 -5 -11 -17 -9 -27 3 -17 5 -17 26 4 23 23 24 23 43 6 13
-11 23 -14 29 -8 15 15 16 97 2 102 -7 2 -12 10 -12 18 0 8 -16 22 -35 30 -38
15 -44 16 -95 4z m84 -216 c19 -18 21 -34 5 -34 -15 0 -69 33 -69 42 0 14 48
8 64 -8z m-59 -76 c-9 -43 -10 -43 -34 -19 -29 29 -27 45 4 37 14 -4 25 -2 25
4 0 5 3 10 6 10 3 0 2 -15 -1 -32z m75 -123 c0 -8 -4 -15 -9 -15 -13 0 -22 16
-14 24 11 11 23 6 23 -9z m69 -43 c-1 -32 1 -64 5 -70 4 -7 5 -16 2 -21 -8
-12 -46 -21 -46 -11 0 5 -10 10 -22 12 -25 4 -37 28 -13 28 9 0 21 13 26 30 6
16 15 27 20 24 5 -3 9 2 9 11 0 8 -7 18 -15 21 -25 10 -17 34 11 34 25 0 25
-2 23 -58z m-154 28 c3 -5 1 -10 -4 -10 -6 0 -11 5 -11 10 0 6 2 10 4 10 3 0
8 -4 11 -10z m35 -80 c0 -5 -8 -10 -17 -10 -15 0 -16 2 -3 10 19 12 20 12 20
0z m-4360 -35 c0 -15 -6 -25 -14 -25 -8 0 -17 -6 -19 -12 -3 -8 -6 -6 -6 5 -1
9 3 17 8 17 5 0 13 9 16 20 9 27 15 25 15 -5z m4305 -25 c8 0 21 -15 30 -34
11 -23 22 -33 31 -29 21 8 17 -10 -5 -24 -17 -11 -21 -9 -29 16 -6 16 -20 32
-31 36 -12 3 -21 12 -21 20 0 7 -3 15 -7 18 -5 2 -2 2 5 0 8 -1 20 -3 27 -3z
m255 -17 c-14 -2 -31 -12 -37 -21 -14 -17 -17 -13 -7 12 4 10 17 16 38 15 27
-2 27 -2 6 -6z m45 -22 c-3 -6 -11 -11 -17 -11 -6 0 -6 6 2 15 14 17 26 13 15
-4z m-455 -1 c0 -5 -4 -10 -10 -10 -5 0 -10 5 -10 10 0 6 5 10 10 10 6 0 10
-4 10 -10z m30 0 c0 -5 -5 -10 -11 -10 -5 0 -7 5 -4 10 3 6 8 10 11 10 2 0 4
-4 4 -10z m269 1 c11 -7 9 -10 -8 -16 -22 -7 -41 0 -41 16 0 11 30 12 49 0z
m51 -73 c0 -13 -8 -18 -30 -18 -16 0 -30 2 -30 4 0 2 -3 12 -7 22 -4 11 -3 15
4 11 6 -4 14 0 17 8 5 13 9 13 26 3 11 -7 20 -21 20 -30z m97 12 c1 -11 -2
-20 -8 -20 -5 0 -9 9 -9 20 0 11 4 20 8 20 4 0 8 -9 9 -20z m-4477 -35 c0 -8
-6 -15 -12 -15 -10 0 -10 -2 0 -9 10 -6 4 -10 -18 -15 -18 -3 -39 -6 -46 -6
-20 0 -17 19 4 27 9 4 21 12 25 20 11 18 47 17 47 -2z m4230 -4 c0 -12 -20
-25 -27 -18 -7 7 6 27 18 27 5 0 9 -4 9 -9z m290 -1 c13 -9 13 -10 0 -10 -8 0
-22 5 -30 10 -13 9 -13 10 0 10 8 0 22 -5 30 -10z m-491 -65 c1 -16 -1 -17 -9
-5 -5 8 -9 29 -9 45 1 29 1 29 9 5 4 -14 8 -34 9 -45z m381 32 c0 -26 4 -33
19 -33 13 0 22 9 26 25 6 22 8 23 21 9 13 -12 14 -28 8 -74 -4 -33 -9 -53 -12
-45 -3 10 -6 10 -12 1 -9 -15 -50 4 -50 23 0 7 -10 18 -21 26 -18 11 -23 11
-30 0 -14 -23 -19 -4 -6 25 8 18 18 25 30 22 16 -4 17 0 12 25 -4 18 -3 29 4
29 6 0 11 -15 11 -33z m-229 -27 c10 0 18 -5 17 -11 -2 -7 11 -16 29 -21 25
-6 31 -12 26 -25 -4 -11 -8 -13 -11 -5 -2 7 -21 12 -43 12 -21 0 -38 3 -38 8
1 4 1 15 0 25 -1 24 -38 22 -46 -3 -3 -11 -12 -20 -20 -20 -19 0 -26 27 -9 34
8 3 14 14 14 25 0 14 8 21 28 23 22 2 28 -1 30 -19 2 -15 10 -23 23 -23z
m-4871 9 c0 -11 5 -17 10 -14 6 4 10 -7 10 -26 0 -27 3 -31 22 -26 33 9 61
-10 54 -38 -4 -15 -1 -25 9 -29 23 -8 18 -26 -8 -26 -12 0 -33 -8 -46 -17 -14
-9 -37 -17 -53 -18 -28 -2 -29 0 -24 29 7 38 -1 50 -39 63 -33 11 -49 53 -21
53 9 0 16 -7 16 -15 0 -8 14 -17 35 -21 29 -5 34 -10 30 -25 -4 -11 -2 -19 4
-19 6 0 11 -7 11 -15 0 -24 20 -17 30 11 15 38 12 54 -8 54 -10 0 -31 13 -45
30 -23 26 -25 33 -15 54 12 28 28 25 28 -5z m746 15 c8 22 64 22 64 0 0 -13
-3 -14 -14 -5 -13 11 -46 5 -46 -8 0 -4 7 -16 15 -27 20 -26 19 -34 -5 -34
-11 0 -20 5 -20 10 0 6 -6 10 -14 10 -8 0 -15 14 -18 35 -4 32 -3 33 14 18 16
-14 18 -14 24 1z m4257 9 c-7 -2 -13 -13 -13 -22 0 -27 -12 -33 -32 -15 -23
22 -7 44 31 43 14 0 20 -3 14 -6z m267 -8 c0 -8 -4 -15 -10 -15 -5 0 -10 5
-10 11 0 5 -4 8 -9 4 -5 -3 -12 -1 -16 5 -4 6 5 10 19 10 16 0 26 -6 26 -15z
m-5070 -14 c0 -5 10 -12 23 -16 12 -3 40 -11 62 -16 22 -6 53 -18 68 -26 15
-8 42 -14 60 -12 48 3 69 0 63 -10 -10 -15 -146 -8 -157 9 -7 10 -8 0 -4 -35
6 -46 5 -49 -9 -31 -9 11 -16 16 -16 11 0 -5 -6 -1 -13 9 -12 16 -16 17 -35 5
-19 -12 -24 -11 -44 8 -21 22 -30 61 -21 96 5 18 23 24 23 8z m200 -1 c0 -5
11 -12 25 -16 24 -6 24 -7 8 -20 -16 -11 -20 -10 -35 9 -20 25 -22 37 -8 37 6
0 10 -4 10 -10z m-501 -37 c-15 -18 -34 -1 -25 22 5 14 9 15 21 5 12 -10 13
-16 4 -27z m476 13 c0 -11 -6 -20 -13 -22 -7 -1 -8 0 -2 3 15 7 12 23 -5 23
-8 0 -15 5 -15 11 0 6 8 9 18 7 9 -2 17 -12 17 -22z m4375 -6 c0 -5 -4 -10
-10 -10 -5 0 -10 5 -10 10 0 6 5 10 10 10 6 0 10 -4 10 -10z m-4157 -26 c-4
-10 -10 -11 -24 -3 -16 8 -19 6 -19 -11 0 -15 -6 -20 -29 -20 -24 0 -29 4 -27
24 1 23 5 25 53 25 40 0 51 -4 46 -15z m93 -39 c18 -14 18 -14 -7 -15 -15 0
-29 7 -33 15 -7 19 14 19 40 0z m-222 -57 c6 -5 2 -8 -11 -8 -24 0 -27 7 -16
37 7 17 8 17 11 -2 3 -11 9 -23 16 -27z m361 32 c4 -6 12 -7 18 -4 7 4 9 4 5
-1 -4 -4 -3 -14 3 -22 9 -10 7 -13 -10 -13 -11 0 -21 5 -21 11 0 5 -4 7 -10 4
-5 -3 -10 -15 -10 -27 0 -14 -5 -18 -16 -14 -9 3 -21 6 -27 7 -7 0 -2 4 11 10
13 5 20 14 17 19 -7 11 12 40 26 40 4 0 11 -5 14 -10z m3830 1 c8 -14 -13 -24
-33 -16 -14 5 -14 7 -2 15 19 12 27 12 35 1z m-4290 -31 c3 -5 1 -10 -4 -10
-6 0 -11 5 -11 10 0 6 2 10 4 10 3 0 8 -4 11 -10z m298 4 c33 -6 37 -10 37
-36 0 -20 -4 -27 -12 -23 -7 4 -4 -1 6 -9 11 -9 16 -16 10 -17 -5 -1 -18 -2
-29 -3 -11 -1 -30 -3 -42 -4 -30 -3 -30 -32 -1 -32 38 0 10 -13 -37 -17 -77
-6 -54 33 33 57 38 10 41 13 32 34 -5 13 -6 27 -3 30 4 3 2 6 -4 6 -6 0 -16
-7 -23 -15 -7 -8 -23 -15 -36 -15 -25 0 -33 -15 -11 -23 6 -2 9 -7 6 -11 -3
-3 -18 0 -33 8 -27 13 -27 14 -7 21 12 3 24 17 27 31 7 26 20 29 87 18z m4352
-4 c3 -5 -1 -10 -9 -10 -8 0 -18 5 -21 10 -3 6 1 10 9 10 8 0 18 -4 21 -10z
m-5058 -49 c0 -35 -3 -40 -28 -45 -20 -4 -27 -11 -26 -26 1 -20 17 -29 17 -10
0 6 5 10 10 10 24 0 7 -28 -29 -48 -21 -12 -41 -22 -45 -22 -3 0 -6 15 -6 33
0 21 7 36 20 45 30 19 23 62 -12 69 -26 5 -40 23 -19 23 5 0 16 3 24 6 9 3 16
-3 20 -15 7 -29 36 -26 47 5 14 35 27 23 27 -25z m224 22 c11 -31 -1 -49 -26
-39 -11 4 -15 12 -11 22 3 9 6 22 6 30 0 24 20 16 31 -13z m4615 -10 c-11 -11
-17 4 -9 23 7 18 8 18 11 1 2 -10 1 -21 -2 -24z m154 22 c10 -13 9 -15 -8 -15
-15 0 -20 5 -16 15 4 8 7 15 9 15 1 0 8 -7 15 -15z m155 -5 c3 -5 21 -10 38
-10 l32 0 -30 -24 c-27 -22 -31 -22 -52 -9 -25 17 -31 53 -9 53 8 0 18 -4 21
-10z m136 -27 c-9 -16 -10 -14 -11 12 0 21 3 26 11 18 8 -8 8 -16 0 -30z m559
22 c0 -8 9 -15 19 -15 27 0 34 -27 11 -40 -27 -14 -58 -12 -67 4 -4 8 -17 14
-27 13 -10 -1 -21 4 -23 11 -3 7 4 12 16 12 12 0 21 6 21 15 0 9 9 15 25 15
16 0 25 -6 25 -15z m-6630 -21 c0 -8 -7 -14 -15 -14 -15 0 -21 21 -9 33 10 9
24 -2 24 -19z m1216 6 c18 0 18 -14 -1 -30 -21 -17 -19 -47 3 -55 11 -3 24
-16 30 -30 10 -21 8 -25 -10 -31 -15 -4 -25 -1 -34 10 -11 16 -15 14 -38 -17
-14 -19 -26 -37 -26 -41 0 -4 -5 -12 -10 -19 -6 -7 -17 -21 -26 -32 -14 -19
-14 -18 -9 15 6 32 4 36 -24 47 -25 9 -31 17 -31 42 0 35 15 42 23 11 3 -11
10 -20 17 -20 7 0 14 9 17 20 4 13 14 20 29 20 14 0 27 7 31 16 3 8 12 13 20
10 10 -4 13 0 11 15 -3 19 -26 37 -73 55 -15 6 -8 9 28 12 27 2 47 8 48 15 0
9 2 9 6 0 2 -7 11 -13 19 -13z m109 10 c-3 -5 -10 -10 -16 -10 -5 0 -9 5 -9
10 0 6 7 10 16 10 8 0 12 -4 9 -10z m4785 -9 c0 -12 -20 -25 -27 -18 -7 7 6
27 18 27 5 0 9 -4 9 -9z m-5478 -10 c3 9 11 9 34 1 27 -10 28 -10 5 -11 -20
-1 -22 -4 -13 -13 17 -17 15 -31 -3 -24 -9 3 -15 0 -15 -9 0 -10 -10 -15 -30
-15 -34 0 -34 1 -18 46 9 25 15 31 24 23 8 -7 13 -6 16 2z m4748 -1 c0 -5 -4
-10 -10 -10 -5 0 -10 5 -10 10 0 6 5 10 10 10 6 0 10 -4 10 -10z m500 -14 c0
-14 -4 -28 -10 -31 -6 -4 -10 7 -10 24 0 17 5 31 10 31 6 0 10 -11 10 -24z
m-4203 8 c-3 -3 -12 -4 -19 -1 -8 3 -5 6 6 6 11 1 17 -2 13 -5z m5100 -9 c-4
-8 -2 -17 3 -20 18 -11 10 -25 -15 -25 -29 0 -33 21 -9 44 19 20 28 20 21 1z
m-4960 -17 c-3 -8 -6 -5 -6 6 -1 11 2 17 5 13 3 -3 4 -12 1 -19z m3733 2 c0
-11 -4 -20 -10 -20 -5 0 -10 9 -10 20 0 11 5 20 10 20 6 0 10 -9 10 -20z m499
-7 c27 -27 50 -93 32 -93 -12 0 -61 40 -59 48 1 4 -3 17 -10 30 -12 20 -9 42
4 42 3 0 18 -12 33 -27z m331 6 c0 -11 -4 -17 -10 -14 -5 3 -10 13 -10 21 0 8
5 14 10 14 6 0 10 -9 10 -21z m574 6 c4 -11 20 -15 56 -15 51 0 67 -13 30 -25
-11 -3 -20 -11 -20 -16 0 -16 -48 -10 -54 7 -5 12 -15 14 -44 10 -36 -6 -80
10 -56 20 6 3 20 11 30 19 25 19 50 19 58 0z m-6134 1 c0 -3 -4 -8 -10 -11 -5
-3 -10 -1 -10 4 0 6 5 11 10 11 6 0 10 -2 10 -4z m6014 -12 c20 -8 11 -24 -15
-24 -19 0 -25 11 -12 23 8 8 8 8 27 1z m-5872 -16 c2 -6 -7 -22 -19 -34 -18
-18 -21 -28 -15 -41 5 -10 7 -24 5 -30 -5 -14 -55 -18 -67 -6 -4 4 -17 8 -29
8 -17 0 -23 7 -25 33 -3 26 0 32 17 32 11 0 23 -4 26 -10 8 -13 45 -13 45 0 0
6 7 22 16 35 17 26 40 33 46 13z m105 -6 c-10 -10 -14 -22 -10 -25 3 -4 -8 -7
-25 -7 -37 0 -51 16 -22 25 11 3 20 11 20 16 0 5 12 9 27 9 25 0 25 -1 10 -18z
m5353 9 c0 -6 -4 -13 -10 -16 -5 -3 -10 1 -10 9 0 9 5 16 10 16 6 0 10 -4 10
-9z m-5165 -11 c-3 -5 -10 -10 -16 -10 -5 0 -9 5 -9 10 0 6 7 10 16 10 8 0 12
-4 9 -10z m4075 6 c0 -3 -4 -8 -10 -11 -5 -3 -10 -1 -10 4 0 6 5 11 10 11 6 0
10 -2 10 -4z m-3762 -27 c-10 -5 -18 -19 -18 -29 0 -15 -7 -20 -26 -20 l-27 0
29 29 c16 16 36 30 44 30 12 0 11 -2 -2 -10z m5048 -9 c35 0 30 -15 -6 -17
-25 -2 -30 1 -29 20 0 12 3 16 6 10 2 -7 16 -13 29 -13z m-716 -10 c0 -11 -4
-20 -9 -20 -6 0 -9 9 -8 20 1 11 5 20 9 20 4 0 8 -9 8 -20z m510 -7 c0 -8 -4
-11 -10 -8 -5 3 -10 1 -10 -4 0 -6 -5 -11 -11 -11 -8 0 -8 4 1 15 6 8 9 19 5
24 -3 7 0 8 9 5 9 -3 16 -13 16 -21z m386 -38 c-5 -24 -13 -35 -31 -39 -21 -5
-24 -11 -19 -34 4 -19 0 -32 -10 -41 -9 -8 -16 -10 -16 -7 0 4 -9 2 -21 -5
-17 -9 -25 -7 -43 10 -12 12 -34 21 -48 21 -26 0 -46 34 -27 46 14 9 41 -4 34
-16 -3 -5 1 -10 9 -10 9 0 16 -5 16 -12 0 -7 6 -5 18 4 9 9 28 19 41 23 21 6
22 9 8 17 -15 8 -15 11 -1 33 8 12 26 26 40 29 13 4 24 13 24 20 0 20 24 26
28 8 2 -7 1 -29 -2 -47z m-6447 -7 c-16 -29 -23 -15 -14 29 7 35 8 36 16 15 6
-15 5 -31 -2 -44z m5371 52 c0 -5 -2 -10 -4 -10 -3 0 -8 5 -11 10 -3 6 -1 10
4 10 6 0 11 -4 11 -10z m-4382 -29 c26 -23 28 -31 6 -31 -20 0 -66 35 -57 44
11 10 27 6 51 -13z m4462 4 c0 -8 -4 -15 -10 -15 -5 0 -10 7 -10 15 0 8 5 15
10 15 6 0 10 -7 10 -15z m547 -17 c-3 -7 -5 -2 -5 12 0 14 2 19 5 13 2 -7 2
-19 0 -25z m658 22 c3 -5 -1 -10 -10 -10 -9 0 -13 5 -10 10 3 6 8 10 10 10 2
0 7 -4 10 -10z m-5245 -10 c0 -5 -2 -10 -4 -10 -3 0 -8 5 -11 10 -3 6 -1 10 4
10 6 0 11 -4 11 -10z m4896 -30 c1 -29 -3 -40 -13 -40 -8 0 -12 4 -8 9 3 5 1
12 -4 16 -10 6 6 55 18 55 4 0 7 -18 7 -40z m269 17 c-19 -11 -18 -12 10 -17
29 -5 30 -8 27 -49 -2 -24 -8 -55 -13 -68 -7 -20 -12 -22 -29 -13 -19 10 -19
13 -5 33 22 32 20 34 -34 42 -39 5 -51 11 -60 32 -17 37 4 58 43 43 21 -8 32
-7 49 5 11 8 23 12 26 9 3 -3 -3 -11 -14 -17z m-6845 -59 c0 -23 -4 -23 -34 5
-19 18 -22 26 -14 41 10 18 12 18 29 -5 10 -13 19 -32 19 -41z m550 55 c-1
-21 -27 -41 -41 -32 -11 7 -11 9 4 9 9 0 17 7 17 15 0 8 5 15 10 15 6 0 10 -3
10 -7z m1200 -14 c0 -5 -4 -9 -10 -9 -5 0 -10 7 -10 16 0 8 5 12 10 9 6 -3 10
-10 10 -16z m4617 -10 c7 -18 10 -35 7 -40 -2 -4 7 -19 21 -33 24 -24 38 -95
16 -82 -5 4 -11 1 -13 -5 -6 -17 -46 -1 -50 19 -2 9 0 32 5 51 7 29 5 37 -17
60 -19 20 -22 30 -15 44 15 26 33 21 46 -14z m-5913 -21 c-8 -13 -52 -9 -57 5
-9 27 4 35 33 19 16 -9 26 -20 24 -24z m146 22 c0 -5 -5 -10 -11 -10 -5 0 -7
5 -4 10 3 6 8 10 11 10 2 0 4 -4 4 -10z m5655 -1 c11 -16 1 -19 -13 -3 -7 8
-8 14 -3 14 5 0 13 -5 16 -11z m-5292 -12 c4 3 7 -1 7 -11 0 -9 -11 -21 -25
-26 -14 -5 -25 -16 -25 -25 0 -8 -7 -15 -15 -15 -12 0 -13 4 -6 19 6 10 7 21
4 25 -3 3 2 15 12 26 12 14 22 17 30 10 6 -5 15 -7 18 -3z m225 6 c-10 -2 -26
-2 -35 0 -10 3 -2 5 17 5 19 0 27 -2 18 -5z m176 -23 c-5 -5 -16 -5 -24 0 -13
8 -12 10 3 10 9 0 17 6 18 13 0 9 2 8 6 -1 3 -8 1 -18 -3 -22z m4643 24 c-3
-3 -12 -4 -19 -1 -8 3 -5 6 6 6 11 1 17 -2 13 -5z m470 0 c-3 -3 -12 -4 -19
-1 -8 3 -5 6 6 6 11 1 17 -2 13 -5z m-6259 -16 c10 -10 14 -10 21 0 6 10 10
10 20 -1 9 -12 8 -18 -5 -31 -15 -16 -17 -16 -28 -1 -7 9 -19 15 -27 13 -14
-3 -19 2 -19 22 0 14 24 12 38 -2z m157 -23 c14 -14 25 -31 25 -38 0 -16 -40
-20 -57 -5 -18 15 -16 68 3 68 2 0 15 -11 29 -25z m245 15 c11 -7 4 -10 -25
-10 -29 0 -36 3 -25 10 8 5 20 10 25 10 6 0 17 -5 25 -10z m90 -1 c0 -5 -6 -9
-13 -9 -8 0 -19 -10 -24 -22 -10 -21 -12 -21 -18 -5 -4 9 -5 23 -2 31 6 15 57
19 57 5z m4990 1 c0 -5 -7 -10 -15 -10 -8 0 -15 5 -15 10 0 6 7 10 15 10 8 0
15 -4 15 -10z m445 -8 c17 -5 30 -15 30 -23 0 -8 5 -17 10 -21 7 -5 7 -8 0 -8
-5 1 -19 7 -29 15 -11 8 -29 15 -40 15 -35 0 -96 20 -96 31 0 12 73 6 125 -9z
m772 -14 c-3 -8 -6 -5 -6 6 -1 11 2 17 5 13 3 -3 4 -12 1 -19z m-6344 1 c10 0
17 -8 17 -20 0 -10 -4 -19 -10 -19 -5 0 -10 4 -10 9 0 16 -27 20 -52 7 -21
-11 -25 -11 -25 3 0 22 18 33 42 25 11 -3 28 -6 38 -5z m5332 1 c3 -5 -1 -10
-9 -10 -9 0 -16 5 -16 10 0 6 4 10 9 10 6 0 13 -4 16 -10z m395 -14 c0 -34 10
-57 22 -50 6 4 8 -2 6 -12 -2 -11 -8 -19 -15 -19 -6 0 -14 -3 -18 -6 -8 -9
-45 1 -45 12 0 5 7 9 16 9 10 0 15 8 14 23 -4 42 0 67 10 67 6 0 10 -11 10
-24z m-6390 4 c0 -5 -9 -10 -19 -10 -11 0 -23 5 -26 10 -4 6 5 10 19 10 14 0
26 -4 26 -10z m107 -12 c-3 -8 -6 -5 -6 6 -1 11 2 17 5 13 3 -3 4 -12 1 -19z
m1683 18 c0 -3 -4 -8 -10 -11 -5 -3 -10 -1 -10 4 0 6 5 11 10 11 6 0 10 -2 10
-4z m3947 -2 c-3 -3 -12 -4 -19 -1 -8 3 -5 6 6 6 11 1 17 -2 13 -5z m1093 -15
c10 -17 9 -20 -7 -17 -21 3 -34 18 -27 30 9 14 23 9 34 -13z m-6473 -28 c7 -9
12 -20 12 -26 0 -14 -29 -47 -65 -73 l-32 -22 -3 28 c-8 54 0 72 31 72 15 0
30 7 34 15 4 10 -1 15 -14 15 -11 0 -20 5 -20 11 0 14 42 0 57 -20z m213 20
c0 -13 -28 -22 -35 -11 -3 4 1 11 7 13 20 8 28 8 28 -2z m1120 -1 c0 -5 -5
-10 -11 -10 -5 0 -7 5 -4 10 3 6 8 10 11 10 2 0 4 -4 4 -10z m3948 -24 c2 -16
-1 -33 -7 -39 -8 -8 -11 -6 -11 6 0 9 -4 17 -10 17 -5 0 -10 7 -10 16 0 9 5
12 12 8 8 -5 9 -2 5 10 -5 12 -3 16 5 14 7 -3 14 -17 16 -32z m902 24 c0 -5
-4 -10 -9 -10 -6 0 -13 5 -16 10 -3 6 1 10 9 10 9 0 16 -4 16 -10z m-5267 -30
c9 0 17 -6 17 -14 0 -19 -23 -33 -28 -18 -7 23 -22 11 -22 -18 0 -27 -3 -30
-31 -30 -17 0 -28 4 -24 10 3 6 12 10 20 10 16 0 26 25 19 45 -4 10 -13 13
-25 10 -27 -9 -24 14 4 24 15 6 27 4 38 -5 8 -8 23 -14 32 -14z m367 15 c0 -9
-9 -15 -21 -15 -18 0 -19 2 -9 15 7 8 16 15 21 15 5 0 9 -7 9 -15z m4300 -9
c0 -17 -14 -29 -23 -20 -8 8 3 34 14 34 5 0 9 -6 9 -14z m-5217 -16 c-3 -11
-12 -20 -19 -20 -8 0 -14 9 -14 20 0 13 7 20 19 20 14 0 18 -5 14 -20z m367
-10 c0 -5 -4 -10 -10 -10 -5 0 -10 5 -10 10 0 6 5 10 10 10 6 0 10 -4 10 -10z
m5506 -5 c5 -12 9 -12 30 2 17 11 24 12 24 3 0 -8 7 -10 20 -6 11 3 29 9 40
12 14 5 20 2 20 -10 0 -9 -4 -16 -9 -16 -5 0 -11 -9 -14 -20 -4 -17 -11 -19
-31 -14 -29 7 -33 0 -11 -22 24 -25 18 -34 -22 -33 -21 0 -32 3 -25 6 20 8 13
27 -15 41 -37 16 -46 15 -35 -5 13 -23 -33 -50 -54 -32 -11 9 -10 16 6 39 11
16 20 33 20 39 0 10 28 30 43 31 4 0 10 -7 13 -15z m327 2 c17 -3 36 -23 37
-37 0 -3 -27 -5 -60 -5 -55 -1 -60 1 -60 20 0 35 9 38 83 22z m-6097 -25 c11
3 74 -19 74 -26 0 -4 -13 -6 -30 -6 -21 0 -30 5 -30 16 0 12 -3 14 -13 6 -16
-14 -42 1 -32 18 6 9 9 9 15 1 4 -7 11 -11 16 -9z m154 -3 c0 -6 -4 -7 -10 -4
-5 3 -10 1 -10 -6 0 -7 -3 -10 -6 -6 -10 10 5 39 16 32 5 -3 10 -11 10 -16z
m354 0 c-3 -5 -10 -7 -15 -3 -5 3 -7 10 -3 15 3 5 10 7 15 3 5 -3 7 -10 3 -15z
m4936 -1 c0 -13 -23 -5 -28 10 -2 7 2 10 12 6 9 -3 16 -11 16 -16z m550 5 c0
-9 -16 -13 -47 -12 -27 1 -40 3 -30 6 9 2 17 8 17 13 0 5 13 8 30 7 16 -1 30
-8 30 -14z m-6390 -17 c0 -23 -22 -41 -34 -29 -3 4 -6 17 -6 30 0 16 6 23 20
23 14 0 20 -7 20 -24z m80 14 c0 -5 -9 -10 -20 -10 -11 0 -20 5 -20 10 0 6 9
10 20 10 11 0 20 -4 20 -10z m6638 -21 c2 -20 -2 -28 -20 -33 -35 -9 -42 -7
-29 8 9 11 10 20 1 36 -11 20 -9 21 17 18 22 -2 29 -9 31 -29z m-6525 -20 c29
-1 28 -2 -11 -11 -51 -11 -53 -10 -45 21 5 20 7 21 15 7 5 -9 23 -16 41 -17z
m5137 6 c0 -14 -4 -25 -10 -25 -5 0 -10 7 -10 15 0 9 -9 15 -24 15 -18 0 -26
-6 -29 -22 -3 -20 -4 -21 -11 -5 -12 25 11 47 50 47 30 0 34 -3 34 -25z m118
4 c-10 -5 -18 -19 -18 -29 0 -11 -2 -20 -4 -20 -2 0 -11 -3 -20 -6 -21 -8 -20
10 1 31 14 14 14 18 2 26 -10 6 -3 9 21 9 29 -1 32 -2 18 -11z m903 -29 c11 0
19 -7 20 -17 0 -11 4 -7 9 9 14 46 22 53 37 33 7 -11 13 -13 13 -7 0 7 5 12
10 12 6 0 10 -7 10 -15 0 -8 9 -15 20 -15 11 0 20 -4 20 -9 0 -18 -31 -41 -55
-41 -13 0 -26 -6 -29 -12 -5 -10 -7 -10 -12 0 -3 6 -12 12 -21 12 -8 0 -33 17
-54 38 -39 36 -39 37 -17 43 17 4 24 0 26 -13 2 -10 12 -18 23 -18z m175 -37
c-2 -3 -10 -2 -16 2 -9 5 -9 10 -1 18 6 6 12 20 13 32 0 11 3 5 5 -13 3 -19 2
-36 -1 -39z m-5779 35 c-3 -8 -6 -5 -6 6 -1 11 2 17 5 13 3 -3 4 -12 1 -19z
m4817 -3 c3 -8 13 -15 22 -15 10 0 14 -3 11 -7 -4 -3 -2 -12 4 -19 6 -7 8 -17
5 -23 -9 -14 -41 -6 -42 10 -2 34 -5 40 -13 35 -5 -3 -11 3 -14 14 -6 24 18
28 27 5z m-5604 -50 c0 -39 -2 -43 -25 -41 -14 0 -25 6 -25 11 0 6 -5 3 -10
-5 -9 -13 -10 -13 -10 0 1 19 24 50 39 50 6 0 11 9 11 21 0 11 5 17 10 14 6
-3 10 -26 10 -50z m118 48 c-10 -2 -18 -11 -18 -19 0 -14 -2 -14 -15 0 -22 22
-19 26 18 25 17 -1 24 -3 15 -6z m635 -14 c-6 -6 -17 -8 -24 -3 -9 5 -8 9 7
14 23 9 31 3 17 -11z m5341 -3 c-6 -16 -24 -23 -24 -8 0 10 22 33 27 28 2 -2
1 -11 -3 -20z m-6244 -17 c0 -12 -5 -16 -15 -13 -9 4 -15 0 -15 -10 0 -9 -4
-16 -10 -16 -15 0 -12 58 3 63 20 7 37 -4 37 -24z m5450 12 c0 -5 -9 -11 -20
-14 -11 -3 -20 -1 -20 3 0 5 8 11 18 13 9 3 18 5 20 6 1 0 2 -3 2 -8z m250
-28 c0 -7 -11 -13 -25 -13 -18 0 -25 5 -25 18 0 10 3 21 6 25 9 9 44 -16 44
-30z m286 10 c-10 -10 -19 5 -10 18 6 11 8 11 12 0 2 -7 1 -15 -2 -18z m-5016
7 c0 -5 -4 -10 -10 -10 -5 0 -10 5 -10 10 0 6 5 10 10 10 6 0 10 -4 10 -10z
m5177 4 c-3 -3 -12 -4 -19 -1 -8 3 -5 6 6 6 11 1 17 -2 13 -5z m-6411 -25 c14
-16 27 -20 51 -16 26 5 35 1 44 -14 13 -26 14 -25 -43 -32 -41 -6 -48 -4 -49
11 0 10 -3 12 -6 5 -6 -17 -21 -16 -39 1 -17 18 -18 38 -2 54 16 16 22 15 44
-9z m172 -39 c-2 -8 -15 -16 -29 -18 -36 -4 -45 22 -16 48 21 20 22 20 35 3 7
-10 11 -24 10 -33z m312 30 c0 -11 -4 -20 -10 -20 -5 0 -10 9 -10 20 0 11 5
20 10 20 6 0 10 -9 10 -20z m347 -2 c-3 -8 -6 -5 -6 6 -1 11 2 17 5 13 3 -3 4
-12 1 -19z m-263 -12 c-1 -9 6 -16 15 -16 14 0 14 -2 1 -10 -16 -10 -40 12
-40 38 0 7 6 12 13 9 6 -2 11 -12 11 -21z m6440 15 c3 -5 -1 -14 -8 -20 -12
-10 -13 -8 -9 8 6 23 9 25 17 12z m-744 -22 c0 -5 -4 -9 -10 -9 -5 0 -10 7
-10 16 0 8 5 12 10 9 6 -3 10 -10 10 -16z m-6000 1 c0 -5 -4 -10 -10 -10 -5 0
-10 5 -10 10 0 6 5 10 10 10 6 0 10 -4 10 -10z m810 -5 c7 -9 10 -18 7 -21
-10 -11 -37 5 -37 21 0 19 14 19 30 0z m5885 -23 c-8 -9 -25 20 -18 31 3 5 10
2 15 -7 6 -10 7 -20 3 -24z m-6155 18 c8 -5 11 -12 8 -16 -4 -3 -14 1 -23 10
-18 17 -9 21 15 6z m5744 -11 c-8 -14 -34 -10 -34 5 0 9 7 12 20 9 11 -3 17
-9 14 -14z m143 -16 c18 -26 17 -28 -14 -37 -18 -6 -25 -1 -38 24 -9 17 -13
35 -10 39 9 15 45 0 62 -26z m-6397 8 c0 -22 -15 -35 -30 -26 -6 4 -5 13 3 25
15 25 27 25 27 1z m1270 9 c0 -5 -4 -10 -10 -10 -5 0 -10 5 -10 10 0 6 5 10
10 10 6 0 10 -4 10 -10z m5245 0 c-3 -6 1 -13 10 -16 13 -6 14 -8 3 -15 -10
-7 -9 -9 4 -9 19 0 42 -34 35 -53 -2 -7 -9 -2 -16 11 -6 12 -18 22 -26 22 -8
0 -17 11 -21 25 -4 16 -14 25 -28 26 -19 1 -19 2 4 9 36 11 42 11 35 0z m100
0 c-3 -5 -15 -10 -26 -10 -10 0 -19 5 -19 10 0 6 12 10 26 10 14 0 23 -4 19
-10z m-6692 -17 c4 -3 1 -13 -5 -21 -10 -11 -8 -17 7 -28 10 -8 27 -14 37 -14
27 0 22 -12 -19 -42 -26 -20 -40 -25 -53 -18 -9 5 -26 6 -38 3 -13 -3 -22 -1
-22 6 0 6 -13 11 -29 11 -33 0 -44 11 -35 33 10 28 45 27 69 -1 27 -32 35 -27
40 23 4 43 29 68 48 48z m-200 -19 c9 -10 -4 -34 -19 -34 -8 0 -14 6 -14 13 0
22 19 35 33 21z m6067 2 c0 -3 -4 -8 -10 -11 -5 -3 -10 -1 -10 4 0 6 5 11 10
11 6 0 10 -2 10 -4z m430 -16 c0 -5 -7 -10 -15 -10 -8 0 -15 5 -15 10 0 6 7
10 15 10 8 0 15 -4 15 -10z m-6552 -47 c-2 -9 -13 -18 -25 -19 -19 -3 -23 1
-23 25 0 23 5 30 23 33 23 3 31 -9 25 -39z m6622 22 c7 -14 11 -28 8 -31 -9
-9 -45 31 -40 44 6 19 17 14 32 -13z m-5710 -5 c0 -5 -2 -10 -4 -10 -3 0 -8 5
-11 10 -3 6 -1 10 4 10 6 0 11 -4 11 -10z m5190 -29 c0 -56 -17 -60 -22 -6 -2
31 1 45 9 45 8 0 13 -14 13 -39z m376 19 c38 0 43 -10 17 -35 -15 -15 -17 -15
-25 -1 -5 9 -15 16 -22 16 -16 0 -28 25 -18 35 4 3 8 1 10 -4 2 -6 19 -11 38
-11z m324 0 c-29 -23 -53 -22 -58 3 -3 14 4 17 40 17 l43 0 -25 -20z m-5370
-10 c12 -8 11 -10 -7 -10 -13 0 -23 5 -23 10 0 13 11 13 30 0z m4568 -12 c-3
-23 -48 -41 -48 -20 0 6 -3 17 -6 26 -5 13 1 16 26 16 27 0 31 -3 28 -22z
m563 2 c6 0 8 -4 4 -9 -3 -5 -1 -12 5 -16 5 -3 10 -13 10 -22 0 -14 -3 -13
-21 3 -11 10 -25 27 -31 38 -9 16 -7 18 7 13 9 -4 21 -7 26 -7z m-6487 -25 c3
-8 1 -15 -4 -15 -6 0 -10 7 -10 15 0 8 2 15 4 15 2 0 6 -7 10 -15z m526 5 c0
-5 -2 -10 -4 -10 -3 0 -8 5 -11 10 -3 6 -1 10 4 10 6 0 11 -4 11 -10z m970 0
c0 -5 -4 -10 -10 -10 -5 0 -10 5 -10 10 0 6 5 10 10 10 6 0 10 -4 10 -10z
m4758 -6 c16 10 26 -14 12 -27 -10 -9 -14 -9 -17 1 -3 6 -8 10 -12 8 -4 -3 -8
5 -8 17 -2 16 0 18 6 8 5 -7 13 -11 19 -7z m-6181 -16 c-3 -8 -6 -5 -6 6 -1
11 2 17 5 13 3 -3 4 -12 1 -19z m6824 2 c25 -14 25 -40 -1 -40 -11 0 -20 -4
-20 -10 0 -5 -7 -10 -15 -10 -9 0 -14 8 -12 23 1 13 -3 21 -10 20 -14 -3 -17
9 -6 20 10 10 42 8 64 -3z m-5771 -20 c0 -11 -4 -20 -10 -20 -5 0 -10 9 -10
20 0 11 5 20 10 20 6 0 10 -9 10 -20z m5623 -5 c10 -14 16 -29 13 -34 -7 -10
-46 -3 -46 9 0 4 -10 11 -22 15 -20 6 -20 8 -5 12 9 2 17 9 17 14 0 18 25 8
43 -16z m-6844 6 c16 -10 25 -61 10 -61 -5 0 -9 5 -9 11 0 6 -7 9 -15 5 -11
-4 -15 2 -15 24 0 31 6 36 29 21z m6660 -6 c60 -31 55 -117 -6 -112 -27 2 -37
34 -15 46 15 9 15 12 -6 40 -12 17 -22 33 -22 36 0 9 20 5 49 -10z m-151 -13
c-20 -4 -23 -13 -8 -28 8 -8 6 -15 -5 -24 -20 -17 -23 -12 -18 31 4 32 8 36
26 31 18 -5 19 -7 5 -10z m-6380 -24 c-4 -29 -26 -35 -23 -6 3 29 3 28 16 28
6 0 9 -10 7 -22z m112 15 c0 -10 -32 -43 -42 -43 -12 0 -10 24 4 38 13 13 38
16 38 5z m50 -2 c0 -6 -9 -9 -20 -8 -11 1 -20 5 -20 9 0 4 9 8 20 8 11 0 20
-4 20 -9z m6155 -1 c3 -5 1 -10 -4 -10 -6 0 -11 5 -11 10 0 6 2 10 4 10 3 0 8
-4 11 -10z m327 -26 c5 -41 -3 -49 -32 -34 -19 10 -27 49 -13 63 19 20 41 5
45 -29z m-5935 20 c-3 -3 -12 -4 -19 -1 -8 3 -5 6 6 6 11 1 17 -2 13 -5z
m5128 -24 c3 -5 2 -10 -4 -10 -5 0 -13 5 -16 10 -3 6 -2 10 4 10 5 0 13 -4 16
-10z m578 -23 c-3 -5 -10 -4 -15 1 -6 6 -7 16 -3 22 6 9 9 9 16 -1 4 -7 5 -17
2 -22z m51 -28 c-7 -12 -41 -12 -48 0 -4 5 0 11 6 14 19 6 49 -4 42 -14z
m-6399 -21 c-3 -35 -25 -34 -25 1 0 21 4 29 13 25 8 -3 13 -15 12 -26z m6735
-24 c0 -18 -21 -29 -29 -16 -3 6 -27 9 -53 8 -37 -3 -47 0 -51 13 -3 14 3 18
32 19 58 2 71 5 71 16 1 15 30 -25 30 -40z m-6673 9 c-3 -3 -11 -2 -17 2 -9 6
-9 10 1 16 14 8 27 -7 16 -18z m5820 2 c0 -8 -9 -15 -19 -15 -10 0 -18 7 -18
15 0 8 8 15 18 15 10 0 19 -7 19 -15z m-6087 -5 c0 -5 -2 -10 -4 -10 -3 0 -8
5 -11 10 -3 6 -1 10 4 10 6 0 11 -4 11 -10z m6404 -25 c4 -10 -1 -15 -14 -15
-20 0 -26 11 -13 23 10 11 20 8 27 -8z m-6489 -5 c3 -5 -1 -10 -9 -10 -9 0
-16 5 -16 10 0 6 4 10 9 10 6 0 13 -4 16 -10z m255 1 c0 -6 -5 -13 -10 -16
-15 -9 -43 3 -35 15 8 13 45 13 45 1z m6384 -7 c8 -22 -4 -40 -15 -23 -11 18
-11 39 0 39 5 0 12 -7 15 -16z m-6614 -24 c0 -5 -4 -10 -10 -10 -5 0 -10 5
-10 10 0 6 5 10 10 10 6 0 10 -4 10 -10z m890 0 c0 -5 7 -10 16 -10 8 0 12 -4
9 -10 -3 -5 1 -10 9 -10 9 0 16 -4 16 -10 0 -5 -13 -10 -30 -10 -20 0 -30 5
-30 15 0 8 -7 15 -15 15 -16 0 -20 12 -8 23 10 11 33 8 33 -3z m5300 -25 c0
-19 -4 -35 -10 -35 -11 0 -13 30 -4 54 10 25 14 19 14 -19z m-6090 -5 c0 -15
-7 -20 -25 -20 -27 0 -28 1 -19 24 9 24 44 20 44 -4z m1090 16 c0 -3 -4 -8
-10 -11 -5 -3 -10 -1 -10 4 0 6 5 11 10 11 6 0 10 -2 10 -4z m5460 -6 c0 -5
-4 -10 -10 -10 -5 0 -10 5 -10 10 0 6 5 10 10 10 6 0 10 -4 10 -10z m300 -12
c24 -36 28 -62 14 -76 -8 -8 -14 -8 -14 -2 0 5 -9 19 -20 30 -14 14 -18 28
-14 45 8 31 15 31 34 3z m335 12 c3 -5 -1 -10 -9 -10 -9 0 -16 5 -16 10 0 6 4
10 9 10 6 0 13 -4 16 -10z m-7280 -21 c-4 -5 -13 -9 -22 -9 -13 0 -13 3 -3 15
13 15 35 11 25 -6z m177 -11 c-7 -7 -12 -8 -12 -2 0 14 12 26 19 19 2 -3 -1
-11 -7 -17z m6656 10 c7 -7 12 -21 12 -31 0 -15 5 -18 25 -15 43 9 37 -9 -7
-20 -47 -12 -48 -12 -53 15 -2 10 -4 19 -4 21 -1 1 -17 -5 -38 -13 -20 -8 -38
-14 -40 -11 -2 2 8 18 22 35 28 32 62 40 83 19z m-382 -35 c-11 -11 -19 6 -11
24 8 17 8 17 12 0 3 -10 2 -21 -1 -24z m217 11 c13 -5 13 -8 -4 -25 -25 -25
-29 -24 -29 6 0 26 7 29 33 19z m-6523 -43 c0 -24 -18 -37 -31 -24 -13 13 -1
43 17 43 8 0 14 -9 14 -19z m313 5 c6 -16 -2 -28 -14 -20 -12 7 -11 34 0 34 5
0 11 -6 14 -14z m5688 -17 c10 -6 8 -9 -8 -9 -17 0 -23 6 -23 23 0 16 3 18 9
8 5 -7 15 -17 22 -22z m109 23 c0 -4 -9 -13 -20 -20 -18 -11 -20 -10 -20 8 0
13 7 20 20 20 11 0 20 -3 20 -8z m-5945 -32 c-6 -9 -9 -9 -16 1 -10 17 0 34
13 21 6 -6 7 -16 3 -22z m6151 -11 c8 -14 -18 -31 -30 -19 -9 9 0 30 14 30 5
0 12 -5 16 -11z m-6471 -25 c9 3 12 0 8 -10 -6 -16 -6 -16 -26 -8 -10 3 -13
13 -9 27 5 19 7 20 10 4 2 -11 10 -16 17 -13z m6925 6 c0 -5 -4 -10 -10 -10
-5 0 -10 5 -10 10 0 6 5 10 10 10 6 0 10 -4 10 -10z m-258 -25 c-4 -23 -21
-33 -34 -19 -6 6 22 42 33 43 3 1 4 -10 1 -24z m-5796 -1 c-3 -9 -6 -21 -6
-27 0 -8 -3 -8 -10 -1 -12 12 -3 44 12 44 6 0 7 -7 4 -16z m5674 1 c0 -8 -4
-15 -10 -15 -5 0 -10 7 -10 15 0 8 5 15 10 15 6 0 10 -7 10 -15z m-430 -16 c0
-5 -4 -9 -10 -9 -5 0 -10 7 -10 16 0 8 5 12 10 9 6 -3 10 -10 10 -16z m1200
-23 c0 -2 -9 -6 -20 -9 -13 -3 -24 3 -34 18 -14 22 -14 24 2 27 14 3 52 -23
52 -36z m-6265 23 c11 -17 -1 -21 -15 -4 -8 9 -8 15 -2 15 6 0 14 -5 17 -11z
m1142 5 c-3 -3 -12 -4 -19 -1 -8 3 -5 6 6 6 11 1 17 -2 13 -5z m-1755 -36 c-9
-9 -12 -7 -12 12 0 19 3 21 12 12 9 -9 9 -15 0 -24z m6426 20 c-7 -19 -38 -22
-38 -4 0 10 9 16 21 16 12 0 19 -5 17 -12z m-6698 -17 c0 -8 -6 -11 -16 -7 -9
3 -22 6 -30 6 -8 0 -14 4 -14 9 0 4 13 8 30 7 18 -1 30 -6 30 -15z m7044 -4
c-8 -21 -32 -29 -52 -17 -14 8 -12 9 11 10 15 0 30 7 34 15 3 9 7 14 9 12 3
-2 2 -11 -2 -20z m-957 -16 c7 -10 9 -21 6 -24 -7 -8 -33 18 -33 32 0 17 14
13 27 -8z m189 -19 c-10 -10 -29 15 -21 28 6 9 10 8 17 -4 6 -10 7 -20 4 -24z
m-376 6 c0 -16 -3 -19 -11 -11 -6 6 -8 16 -5 22 11 17 16 13 16 -11z m596 -13
c-4 -13 -35 -7 -52 10 -21 21 -17 23 21 11 19 -6 33 -15 31 -21z m-6447 -4 c8
-15 7 -20 -5 -25 -16 -6 -44 15 -44 33 0 19 39 12 49 -8z m5701 -21 c0 -5 -2
-10 -4 -10 -3 0 -8 5 -11 10 -3 6 -1 10 4 10 6 0 11 -4 11 -10z m510 0 c0 -5
-4 -10 -10 -10 -5 0 -10 5 -10 10 0 6 5 10 10 10 6 0 10 -4 10 -10z m76 -40
c8 0 14 -4 14 -10 0 -11 -33 -14 -43 -4 -3 3 -3 13 1 22 4 10 7 12 10 4 2 -7
10 -12 18 -12z m-6486 -5 c10 -13 9 -15 -8 -15 -15 0 -20 5 -16 15 4 8 7 15 9
15 1 0 8 -7 15 -15z m-42 -18 c2 -12 -1 -15 -12 -11 -19 7 -22 38 -3 32 6 -3
13 -12 15 -21z m151 -24 c-8 -9 -16 -10 -22 -4 -13 13 0 31 19 24 11 -4 12 -8
3 -20z m71 17 c0 -5 -7 -10 -15 -10 -8 0 -15 5 -15 10 0 6 7 10 15 10 8 0 15
-4 15 -10z m110 0 c0 -5 -7 -10 -15 -10 -8 0 -15 5 -15 10 0 6 7 10 15 10 8 0
15 -4 15 -10z m-400 -30 c27 -27 25 -40 -5 -40 -27 0 -41 20 -31 45 7 20 12
19 36 -5z m715 10 c3 -5 -1 -10 -10 -10 -9 0 -13 5 -10 10 3 6 8 10 10 10 2 0
7 -4 10 -10z m-155 -36 c0 -8 -4 -12 -10 -9 -5 3 -10 10 -10 16 0 5 5 9 10 9
6 0 10 -7 10 -16z m6686 -17 c10 4 14 -2 14 -21 0 -19 -5 -26 -20 -26 -17 0
-20 6 -19 38 1 20 3 29 6 20 2 -10 10 -15 19 -11z m-6483 -20 c-3 -5 -10 -4
-15 1 -6 6 -7 16 -3 22 6 9 9 9 16 -1 4 -7 5 -17 2 -22z m5444 11 c-3 -8 -6
-5 -6 6 -1 11 2 17 5 13 3 -3 4 -12 1 -19z m-6051 -32 c3 -8 4 -24 2 -35 -3
-20 -4 -20 -27 -2 -21 16 -22 20 -10 34 18 20 28 21 35 3z m6778 -13 c-12 -13
-19 -14 -22 -5 -2 7 -9 9 -14 6 -7 -4 -8 -2 -4 4 4 6 13 9 20 6 8 -3 17 0 21
6 4 6 9 9 12 6 3 -3 -3 -13 -13 -23z m-5874 2 c0 -8 -9 -15 -20 -15 -25 0 -26
17 -2 23 9 3 18 5 20 6 1 0 2 -6 2 -14z m-807 -2 c-7 -2 -19 -2 -25 0 -7 3 -2
5 12 5 14 0 19 -2 13 -5z m6154 -15 c-3 -8 -6 -5 -6 6 -1 11 2 17 5 13 3 -3 4
-12 1 -19z m988 -8 c3 -5 -1 -10 -9 -10 -9 0 -16 5 -16 10 0 6 4 10 9 10 6 0
13 -4 16 -10z m-1035 -30 c0 -5 -2 -10 -4 -10 -3 0 -8 5 -11 10 -3 6 -1 10 4
10 6 0 11 -4 11 -10z m-6020 -10 c0 -5 -5 -10 -11 -10 -5 0 -7 5 -4 10 3 6 8
10 11 10 2 0 4 -4 4 -10z m6990 -46 c0 -14 -3 -14 -15 -4 -8 7 -15 14 -15 16
0 2 7 4 15 4 8 0 15 -7 15 -16z m-229 -19 c5 4 9 -5 9 -19 0 -26 -14 -35 -25
-16 -4 6 -10 8 -14 6 -4 -3 -5 9 -3 26 4 25 6 28 14 14 5 -9 13 -14 19 -11z
m89 -86 c0 -24 -23 -21 -28 4 -2 10 3 17 12 17 10 0 16 -9 16 -21z m-7071 -19
c-15 -10 -41 -1 -34 10 3 5 14 6 26 3 15 -4 17 -8 8 -13z m-139 -90 c0 -5 -2
-10 -4 -10 -3 0 -8 5 -11 10 -3 6 -1 10 4 10 6 0 11 -4 11 -10z m6830 -46 c0
-8 -4 -12 -10 -9 -5 3 -10 10 -10 16 0 5 5 9 10 9 6 0 10 -7 10 -16z m-100
-90 c0 -8 -4 -12 -10 -9 -5 3 -10 10 -10 16 0 5 5 9 10 9 6 0 10 -7 10 -16z
m290 -65 c0 -5 -7 -9 -15 -9 -8 0 -15 7 -15 15 0 9 6 12 15 9 8 -4 15 -10 15
-15z m-6840 -19 c0 -11 -4 -20 -9 -20 -5 0 -11 9 -14 20 -3 13 0 20 9 20 8 0
14 -9 14 -20z m6674 -29 c3 -4 3 -11 0 -14 -8 -7 -44 4 -44 14 0 12 37 12 44
0z m80 -11 c-10 -4 -23 -5 -28 -2 -13 7 16 21 32 14 13 -4 12 -7 -4 -12z m126
-170 c0 -5 -4 -10 -10 -10 -5 0 -10 5 -10 10 0 6 5 10 10 10 6 0 10 -4 10 -10z"/>
<path d="M6275 2530 c-3 -6 1 -7 9 -4 18 7 21 14 7 14 -6 0 -13 -4 -16 -10z"/>
<path d="M1356 2543 c-3 -3 -6 -17 -6 -30 0 -18 5 -23 25 -23 27 0 34 17 10
26 -8 4 -13 10 -10 14 7 11 -10 22 -19 13z"/>
<path d="M1430 2211 c0 -5 5 -13 10 -16 6 -3 10 -2 10 4 0 5 -4 13 -10 16 -5
3 -10 2 -10 -4z"/>
<path d="M7248 2203 c6 -2 18 -2 25 0 6 3 1 5 -13 5 -14 0 -19 -2 -12 -5z"/>
<path d="M7130 1980 c0 -5 5 -10 10 -10 6 0 10 5 10 10 0 6 -4 10 -10 10 -5 0
-10 -4 -10 -10z"/>
<path d="M6880 1619 c0 -5 5 -7 10 -4 6 3 10 8 10 11 0 2 -4 4 -10 4 -5 0 -10
-5 -10 -11z"/>
<path d="M6981 3314 c0 -11 3 -14 6 -6 3 7 2 16 -1 19 -3 4 -6 -2 -5 -13z"/>
<path d="M595 3311 c-8 -14 54 -41 94 -40 29 0 32 2 16 9 -11 5 -32 9 -46 9
-15 1 -29 8 -33 16 -6 17 -22 20 -31 6z"/>
<path d="M1640 3310 c-13 -8 -12 -10 3 -10 9 0 17 5 17 10 0 12 -1 12 -20 0z"/>
<path d="M1523 3295 c4 -8 2 -17 -3 -20 -6 -4 -10 -1 -10 4 0 6 -7 11 -15 11
-8 0 -15 -7 -15 -16 0 -9 -9 -25 -21 -35 -26 -22 -37 -104 -13 -95 9 3 18 6
20 6 3 0 2 5 -1 10 -3 6 0 10 8 10 10 0 13 7 10 21 -7 27 41 68 81 69 20 0 27
4 23 14 -3 7 0 19 6 25 8 8 0 11 -32 11 -34 0 -42 -3 -38 -15z"/>
<path d="M0 3281 c0 -12 5 -21 10 -21 6 0 10 6 10 14 0 8 -4 18 -10 21 -5 3
-10 -3 -10 -14z"/>
<path d="M526 3282 c-2 -4 -1 -14 5 -22 7 -12 9 -10 9 8 0 23 -5 28 -14 14z"/>
<path d="M1596 3259 c-16 -101 -9 -123 33 -112 17 4 19 9 10 24 -5 10 -16 19
-24 19 -19 0 -20 19 -1 26 15 6 13 51 -3 67 -6 6 -11 -2 -15 -24z"/>
<path d="M1696 3258 c-13 -30 -12 -33 12 -52 28 -22 52 -29 52 -15 0 5 -4 9
-10 9 -15 0 -12 47 3 53 8 3 6 10 -8 21 -28 22 -34 20 -49 -16z"/>
<path d="M6355 3280 c-3 -5 -1 -10 4 -10 6 0 11 5 11 10 0 6 -2 10 -4 10 -3 0
-8 -4 -11 -10z"/>
<path d="M6420 3281 c0 -14 18 -23 31 -15 8 4 7 9 -2 15 -18 11 -29 11 -29 0z"/>
<path d="M6708 3273 c7 -3 16 -2 19 1 4 3 -2 6 -13 5 -11 0 -14 -3 -6 -6z"/>
<path d="M7395 3272 c-13 -14 -3 -32 19 -32 13 0 26 -6 29 -12 2 -7 7 -10 11
-7 11 10 -3 34 -29 45 -13 7 -26 9 -30 6z"/>
<path d="M1405 3259 c-4 -6 -3 -15 3 -21 6 -6 11 -4 15 6 7 18 -9 31 -18 15z"/>
<path d="M860 3251 c0 -5 7 -14 15 -21 16 -14 18 -10 9 14 -6 17 -24 22 -24 7z"/>
<path d="M1320 3250 c0 -5 7 -10 15 -10 8 0 15 5 15 10 0 6 -7 10 -15 10 -8 0
-15 -4 -15 -10z"/>
<path d="M790 3234 c0 -8 5 -12 10 -9 6 3 10 10 10 16 0 5 -4 9 -10 9 -5 0
-10 -7 -10 -16z"/>
<path d="M6923 3236 c-4 -8 -26 -21 -47 -28 -40 -13 -61 -38 -32 -38 9 0 16 7
16 16 0 12 6 15 23 10 12 -3 28 -6 35 -6 6 0 12 -8 12 -17 1 -16 2 -16 15 1 8
11 15 14 15 8 0 -7 9 -12 20 -12 17 0 20 -7 20 -41 0 -36 2 -40 15 -29 12 10
15 10 15 -1 0 -10 3 -10 8 -3 4 7 16 13 26 15 23 5 34 29 13 29 -8 0 -25 11
-38 25 -13 13 -28 25 -32 25 -9 0 -27 14 -57 43 -16 16 -19 17 -27 3z"/>
<path d="M129 3234 c-11 -20 -3 -39 19 -42 16 -3 22 2 22 17 0 25 -20 39 -21
14 0 -16 -1 -16 -8 1 -4 11 -10 15 -12 10z"/>
<path d="M6546 3218 c-23 -32 -20 -41 12 -33 39 9 45 19 23 39 -18 16 -20 16
-35 -6z"/>
<path d="M6750 3230 c0 -12 40 -34 47 -26 9 8 -17 36 -33 36 -8 0 -14 -4 -14
-10z"/>
<path d="M236 3214 c-9 -24 -7 -56 3 -49 5 3 9 19 9 35 -1 34 -3 37 -12 14z"/>
<path d="M6628 3223 c7 -3 16 -2 19 1 4 3 -2 6 -13 5 -11 0 -14 -3 -6 -6z"/>
<path d="M7118 3223 c7 -3 16 -2 19 1 4 3 -2 6 -13 5 -11 0 -14 -3 -6 -6z"/>
<path d="M6348 3184 c0 -16 -1 -35 -1 -41 1 -7 -3 -13 -8 -13 -5 0 -9 17 -10
38 0 20 -3 32 -5 25 -3 -7 -11 -10 -18 -7 -22 9 -35 -19 -29 -64 l6 -42 29 21
c32 23 44 18 51 -21 4 -21 4 -20 6 8 1 23 6 32 19 32 9 0 25 7 35 14 17 13 18
16 2 40 -10 14 -22 23 -31 19 -8 -3 -21 0 -29 7 -13 11 -15 8 -17 -16z"/>
<path d="M502 3169 c2 -7 10 -15 17 -17 8 -3 12 1 9 9 -2 7 -10 15 -17 17 -8
3 -12 -1 -9 -9z"/>
<path d="M1068 3169 c20 -21 14 -34 -20 -50 -43 -19 -50 -55 -13 -69 39 -15
48 -12 42 11 -7 27 1 49 19 49 15 0 18 12 7 24 -4 4 -8 15 -8 24 0 9 -9 18
-20 20 -16 3 -18 1 -7 -9z"/>
<path d="M1140 3170 c19 -13 30 -13 30 0 0 6 -10 10 -22 10 -19 0 -20 -2 -8
-10z"/>
<path d="M1345 3156 c-10 -14 -23 -26 -31 -26 -16 0 -45 -40 -38 -52 11 -17
45 -7 54 16 11 29 28 36 58 23 36 -16 39 1 5 35 l-31 31 -17 -27z"/>
<path d="M250 3155 c0 -8 5 -15 10 -15 6 0 10 7 10 15 0 8 -4 15 -10 15 -5 0
-10 -7 -10 -15z"/>
<path d="M918 3163 c-10 -2 -18 -8 -18 -13 0 -11 36 -19 60 -13 20 5 28 23 11
23 -5 0 -15 2 -23 4 -7 2 -21 2 -30 -1z"/>
<path d="M1708 3157 c-33 -13 -35 -27 -10 -50 24 -22 32 -21 32 2 0 11 7 26
15 35 28 28 13 33 -37 13z"/>
<path d="M6505 3160 c-3 -5 -3 -15 0 -20 10 -16 -5 -51 -18 -43 -17 10 -47 11
-47 1 0 -4 5 -8 10 -8 6 0 10 -4 10 -10 0 -5 -7 -10 -15 -10 -8 0 -15 -8 -15
-19 0 -12 -13 -25 -35 -35 -19 -9 -35 -21 -35 -26 0 -6 0 -13 0 -17 0 -12 47
-22 70 -16 12 3 20 14 20 25 0 12 16 35 35 54 27 25 35 41 35 68 0 25 4 36 15
36 8 0 15 7 15 15 0 17 -35 21 -45 5z"/>
<path d="M395 3150 c-3 -5 3 -10 15 -10 12 0 18 5 15 10 -3 6 -10 10 -15 10
-5 0 -12 -4 -15 -10z"/>
<path d="M1504 3135 c14 -13 26 -28 26 -33 0 -6 16 -12 35 -14 33 -4 35 -2 35
24 0 26 -3 28 -39 28 -22 0 -43 5 -46 10 -3 6 -13 10 -22 10 -12 0 -9 -7 11
-25z"/>
<path d="M6210 3156 c0 -2 9 -6 20 -9 11 -3 20 -1 20 4 0 5 -9 9 -20 9 -11 0
-20 -2 -20 -4z"/>
<path d="M6720 3140 c0 -11 -4 -20 -10 -20 -17 0 -11 -20 8 -27 9 -4 20 -11
24 -17 5 -8 8 -7 8 1 0 7 -8 17 -17 22 -16 9 -15 10 8 11 32 0 38 6 32 31 -7
27 -53 26 -53 -1z"/>
<path d="M777 3144 c-11 -12 3 -24 28 -24 32 0 40 16 12 24 -28 7 -32 7 -40 0z"/>
<path d="M1143 3137 c-26 -11 -31 -47 -8 -47 8 0 15 5 15 10 0 6 7 10 15 10 8
0 15 -4 15 -10 0 -5 7 -10 15 -10 24 0 17 22 -15 46 -11 8 -22 9 -37 1z"/>
<path d="M118 3123 c7 -3 16 -2 19 1 4 3 -2 6 -13 5 -11 0 -14 -3 -6 -6z"/>
<path d="M1620 3106 c0 -22 17 -28 40 -16 29 16 25 30 -10 30 -19 0 -30 -5
-30 -14z"/>
<path d="M6890 3105 c0 -8 9 -15 20 -15 11 0 20 -4 20 -10 0 -5 9 -10 20 -10
11 0 20 5 20 10 0 6 -7 10 -16 10 -8 0 -13 4 -10 9 3 5 -4 11 -17 15 -33 9
-37 8 -37 -9z"/>
<path d="M180 3105 c0 -12 45 -55 57 -55 19 0 16 31 -4 46 -17 13 -53 19 -53
9z"/>
<path d="M452 3097 c-26 -10 -30 -15 -20 -25 18 -18 68 -16 68 3 0 8 6 15 13
15 8 0 7 4 -3 10 -18 12 -16 12 -58 -3z"/>
<path d="M537 3103 c-3 -5 0 -13 7 -19 8 -8 15 -7 23 2 9 9 9 14 -3 18 -20 8
-22 8 -27 -1z"/>
<path d="M668 3093 c-44 -5 -52 -23 -10 -23 15 0 33 -5 40 -12 8 -8 15 -9 22
-2 11 11 3 45 -9 42 -3 -1 -23 -3 -43 -5z"/>
<path d="M7050 3089 c0 -5 5 -7 10 -4 6 3 10 8 10 11 0 2 -4 4 -10 4 -5 0 -10
-5 -10 -11z"/>
<path d="M310 3075 c0 -8 2 -15 4 -15 2 0 6 7 10 15 3 8 1 15 -4 15 -6 0 -10
-7 -10 -15z"/>
<path d="M930 3080 c0 -5 -9 -10 -20 -10 -11 0 -20 -6 -20 -12 0 -7 -14 -22
-30 -33 -38 -25 -38 -37 -1 -33 22 2 35 -4 51 -25 12 -15 31 -27 43 -27 18 0
19 -2 7 -10 -11 -7 -11 -10 -2 -10 7 0 16 -8 20 -19 5 -14 12 -17 30 -10 12 5
22 15 22 23 0 16 -45 48 -74 51 -12 1 -25 3 -30 4 -14 2 15 31 31 31 8 0 11 4
8 10 -4 6 3 9 16 7 12 -1 24 4 26 11 3 8 -6 12 -26 12 -21 0 -31 -5 -31 -15 0
-8 -4 -15 -9 -15 -19 0 -22 20 -7 42 18 26 20 38 6 38 -5 0 -10 -4 -10 -10z"/>
<path d="M1490 3080 c0 -5 6 -13 13 -17 22 -15 38 -51 24 -57 -7 -3 -1 -4 13
-3 21 2 25 7 25 32 0 23 -5 31 -22 33 -13 2 -23 8 -23 13 0 5 -7 9 -15 9 -8 0
-15 -4 -15 -10z"/>
<path d="M6607 3070 c3 -11 14 -25 24 -31 17 -8 19 -6 19 21 0 25 -4 30 -24
30 -19 0 -23 -4 -19 -20z"/>
<path d="M7150 3080 c0 -5 11 -10 25 -10 14 0 25 5 25 10 0 6 -11 10 -25 10
-14 0 -25 -4 -25 -10z"/>
<path d="M1200 3062 c0 -6 -8 -13 -17 -15 -10 -3 -1 -5 19 -6 20 0 40 4 43 9
3 6 2 10 -4 10 -5 0 -16 3 -25 6 -9 3 -16 1 -16 -4z"/>
<path d="M1705 3061 c-3 -2 -6 -16 -6 -30 -1 -17 -3 -20 -6 -8 -6 21 -8 21
-58 -3 -22 -11 -32 -19 -23 -20 10 0 22 -9 28 -20 6 -11 17 -20 25 -20 7 0 15
-6 17 -12 3 -8 10 -3 18 12 7 14 21 31 32 38 26 19 24 68 -2 68 -12 0 -23 -2
-25 -5z m35 -41 c0 -5 -4 -10 -10 -10 -5 0 -10 5 -10 10 0 6 5 10 10 10 6 0
10 -4 10 -10z"/>
<path d="M360 3048 c0 -5 -7 -8 -15 -8 -9 0 -19 -10 -24 -22 -6 -16 -16 -22
-36 -23 -33 0 -45 -22 -18 -32 10 -4 23 -14 30 -22 7 -9 13 -11 13 -6 0 6 4 5
8 -2 4 -6 27 -13 52 -15 35 -2 45 0 45 12 0 11 -10 14 -40 12 -32 -3 -38 -1
-27 9 6 7 12 29 12 49 1 29 2 32 11 17 6 -10 8 -25 5 -33 -3 -8 -1 -14 4 -14
5 0 11 10 13 23 4 19 4 18 6 -5 1 -26 4 -28 41 -28 24 0 40 -5 40 -12 0 -6 6
-3 14 7 20 28 2 52 -35 47 -24 -4 -29 -1 -29 17 0 13 -7 21 -17 22 -15 0 -15
2 2 9 15 6 11 8 -17 7 -21 -1 -38 -5 -38 -9z"/>
<path d="M6215 3050 c-3 -5 1 -10 9 -10 9 0 16 5 16 10 0 6 -4 10 -9 10 -6 0
-13 -4 -16 -10z"/>
<path d="M7082 3035 c0 -16 2 -22 5 -12 2 9 2 23 0 30 -3 6 -5 -1 -5 -18z"/>
<path d="M29 3022 c-29 -34 -27 -37 15 -37 28 0 40 3 34 10 -5 5 -14 18 -21
28 -12 17 -13 17 -28 -1z"/>
<path d="M6566 2983 c8 -55 12 -63 29 -63 9 0 13 5 10 10 -3 6 1 17 9 26 17
16 21 40 9 47 -5 2 -20 7 -35 11 -26 6 -27 5 -22 -31z"/>
<path d="M7330 3010 c0 -6 8 -10 18 -10 9 0 28 -3 42 -6 17 -5 22 -3 15 3 -14
15 -75 25 -75 13z"/>
<path d="M765 3000 c3 -5 13 -10 21 -10 8 0 14 5 14 10 0 6 -9 10 -21 10 -11
0 -17 -4 -14 -10z"/>
<path d="M1320 2990 c0 -11 4 -20 10 -20 5 0 14 9 20 20 9 17 8 20 -10 20 -13
0 -20 -7 -20 -20z"/>
<path d="M1378 2998 c14 -14 16 -48 3 -48 -5 0 -12 8 -14 18 -4 13 -5 11 -6
-5 -1 -15 -7 -23 -19 -23 -15 0 -17 -6 -14 -34 3 -24 -1 -35 -13 -40 -9 -3
-20 -4 -25 -1 -4 3 -11 -6 -14 -19 -6 -25 1 -55 13 -57 56 -9 83 -6 88 8 4 9
1 19 -5 21 -8 2 -7 8 3 19 12 12 13 18 4 29 -7 8 -9 17 -5 21 8 9 46 -27 46
-45 0 -14 18 -13 95 2 11 2 23 5 27 5 4 1 8 11 10 23 2 19 9 23 38 23 49 0 52
27 5 44 -36 13 -75 7 -75 -11 0 -6 -6 -6 -15 2 -9 7 -13 21 -10 31 5 14 1 19
-14 19 -11 0 -26 -6 -33 -14 -11 -11 -15 -9 -25 15 -8 20 -19 29 -35 29 -17 0
-19 -3 -10 -12z m97 -68 c-3 -6 1 -7 9 -4 13 5 16 -1 16 -30 0 -20 -4 -36 -10
-36 -5 0 -10 4 -10 8 0 4 -14 13 -31 19 -18 7 -28 17 -24 23 3 6 10 8 15 5 4
-3 10 2 14 10 3 8 10 15 16 15 6 0 8 -4 5 -10z m-135 -95 c10 -12 10 -15 -4
-15 -9 0 -16 7 -16 15 0 8 2 15 4 15 2 0 9 -7 16 -15z"/>
<path d="M6800 2981 c0 -12 35 -20 50 -11 8 5 4 9 -12 13 -31 9 -38 9 -38 -2z"/>
<path d="M6890 2980 c-13 -8 -12 -10 3 -10 9 0 17 -4 17 -10 0 -5 11 -12 25
-16 14 -4 24 -8 21 -11 -9 -9 34 -42 48 -37 8 3 17 1 21 -5 11 -18 25 -12 25
10 0 16 -4 19 -20 14 -13 -4 -20 -2 -20 7 0 18 -40 43 -63 39 -10 -1 -24 4
-30 13 -9 11 -16 13 -27 6z"/>
<path d="M6500 2970 c0 -5 5 -10 10 -10 6 0 10 5 10 10 0 6 -4 10 -10 10 -5 0
-10 -4 -10 -10z"/>
<path d="M116 2961 c-17 -7 -17 -8 6 -23 22 -15 24 -15 25 3 2 23 -6 29 -31
20z"/>
<path d="M200 2947 c0 -40 41 -64 54 -32 6 16 -26 55 -44 55 -5 0 -10 -10 -10
-23z"/>
<path d="M7114 2959 c-3 -6 -1 -15 5 -19 9 -5 9 -11 -3 -23 -9 -8 -16 -25 -16
-36 0 -17 -5 -19 -34 -16 -19 3 -38 0 -41 -5 -3 -6 1 -10 9 -10 9 0 16 -5 16
-11 0 -6 6 -9 14 -6 9 4 16 -1 19 -11 3 -14 6 -12 15 8 6 14 11 21 11 16 1 -5
7 -4 14 2 21 17 119 21 135 6 18 -19 29 -18 41 5 8 15 7 20 -8 24 -12 3 -21
18 -25 41 -8 40 -29 45 -34 8 -2 -15 2 -22 13 -22 9 0 13 -5 10 -11 -4 -6 -10
-8 -13 -5 -3 3 -11 1 -18 -5 -8 -7 -14 -7 -19 1 -3 5 -18 11 -33 11 -17 1 -21
3 -9 6 22 6 22 26 -1 46 -22 20 -38 22 -48 6z m3 -101 c-3 -8 -6 -5 -6 6 -1
11 2 17 5 13 3 -3 4 -12 1 -19z"/>
<path d="M1600 2949 c0 -5 5 -7 10 -4 6 3 10 8 10 11 0 2 -4 4 -10 4 -5 0 -10
-5 -10 -11z"/>
<path d="M760 2916 c0 -19 5 -26 20 -26 11 0 20 -4 20 -9 0 -5 9 -11 21 -14
12 -3 18 -10 15 -15 -7 -12 38 -22 54 -12 8 5 9 20 4 46 -5 21 -7 42 -7 45 1
3 -27 7 -63 8 -63 2 -64 1 -64 -23z"/>
<path d="M1250 2924 c0 -9 7 -14 17 -12 25 5 28 28 4 28 -12 0 -21 -6 -21 -16z"/>
<path d="M6705 2922 c-22 -8 -41 -16 -43 -18 -2 -1 8 -13 22 -27 17 -17 23
-32 19 -46 -3 -12 -1 -21 6 -21 6 0 11 4 11 9 0 10 38 24 60 22 11 -1 16 9 16
40 1 29 -2 37 -9 30 -17 -17 -35 -13 -39 8 -3 18 -5 18 -43 3z"/>
<path d="M7326 2932 c-3 -6 -1 -14 5 -17 15 -10 25 3 12 16 -7 7 -13 7 -17 1z"/>
<path d="M6853 2895 c1 -22 6 -35 14 -35 7 0 12 -3 12 -7 -4 -25 4 -33 35 -33
18 0 38 6 44 13 9 10 4 12 -23 9 -34 -4 -35 -3 -35 28 0 24 -4 31 -15 26 -9
-3 -15 0 -15 9 0 7 -4 16 -9 19 -5 3 -9 -10 -8 -29z"/>
<path d="M500 2913 c0 -10 54 -53 68 -53 22 1 67 38 58 48 -7 6 -126 12 -126
5z"/>
<path d="M6520 2906 c0 -18 17 -29 30 -21 8 5 7 11 -1 21 -15 18 -29 18 -29 0z"/>
<path d="M0 2891 c0 -12 5 -21 10 -21 6 0 10 6 10 14 0 8 -4 18 -10 21 -5 3
-10 -3 -10 -14z"/>
<path d="M317 2885 c-4 -8 -2 -17 4 -20 5 -4 7 -11 4 -16 -4 -5 8 -9 24 -9 37
0 38 2 7 34 -27 30 -32 31 -39 11z"/>
<path d="M1160 2885 c-10 -12 -9 -16 4 -21 9 -3 23 -3 32 0 13 5 14 9 4 21 -7
8 -16 15 -20 15 -4 0 -13 -7 -20 -15z"/>
<path d="M1080 2880 c0 -5 -7 -7 -15 -4 -10 4 -15 0 -15 -14 0 -11 8 -22 18
-25 9 -2 24 -8 33 -11 19 -8 45 39 28 50 -6 4 -15 0 -20 -7 -7 -11 -9 -10 -9
4 0 9 -4 17 -10 17 -5 0 -10 -4 -10 -10z"/>
<path d="M55 2859 c-4 -6 -5 -13 -2 -16 8 -7 47 7 47 18 0 13 -37 11 -45 -2z"/>
<path d="M697 2849 c-10 -6 -22 -22 -28 -36 -6 -16 -14 -23 -24 -19 -18 7 -19
-3 -1 -26 7 -10 21 -18 30 -18 9 0 16 -8 16 -20 0 -11 3 -20 8 -20 4 0 18 -17
32 -38 14 -20 31 -41 39 -46 13 -8 12 -11 -4 -17 -17 -6 -16 -8 8 -8 25 -1 27
2 27 40 0 31 -4 42 -18 46 -10 2 -23 18 -30 35 -9 24 -15 28 -32 23 -19 -6
-20 -4 -12 12 7 12 7 25 1 35 -7 13 -5 20 10 27 16 9 19 6 24 -18 6 -31 29
-45 57 -36 12 4 16 12 13 25 -3 11 -8 18 -12 16 -4 -3 -13 9 -20 25 -14 31
-48 39 -84 18z"/>
<path d="M1565 2850 c-4 -7 6 -10 29 -8 20 1 36 6 36 10 0 12 -58 10 -65 -2z"/>
<path d="M240 2841 c0 -7 -4 -10 -8 -7 -5 3 -16 -4 -25 -15 -9 -10 -28 -19
-42 -19 -14 0 -25 -5 -25 -10 0 -6 -6 -10 -12 -9 -26 3 -39 -1 -33 -11 9 -15
-8 -12 -31 5 -10 8 -29 15 -41 15 -18 0 -23 -6 -23 -24 0 -32 5 -34 86 -41 37
-4 72 -9 76 -11 4 -3 13 7 18 22 8 20 14 24 22 16 8 -8 8 -15 -1 -26 -7 -8
-11 -25 -9 -38 2 -18 8 -22 28 -20 14 2 27 8 28 13 2 5 15 9 28 9 13 0 24 4
24 9 0 14 37 23 61 16 11 -4 18 -9 15 -12 -7 -7 19 -33 33 -33 5 0 16 -12 23
-27 7 -16 21 -28 30 -28 10 0 23 -6 30 -13 17 -17 31 -15 46 8 11 18 9 21 -13
30 -15 6 -31 10 -36 10 -5 0 -10 10 -10 23 -1 16 -2 18 -6 5 -6 -23 -23 -24
-23 -2 0 12 -6 15 -21 11 -15 -4 -19 -2 -15 10 3 8 6 21 6 29 0 8 7 14 15 14
8 0 15 5 15 11 0 6 -7 8 -15 5 -9 -3 -23 -2 -33 3 -63 32 -73 34 -84 23 -16
-16 -59 -14 -82 3 -11 8 -15 15 -9 15 11 0 26 41 18 49 -3 2 -5 -1 -5 -8z
m-90 -91 c0 -5 -4 -10 -10 -10 -5 0 -10 5 -10 10 0 6 5 10 10 10 6 0 10 -4 10
-10z"/>
<path d="M6807 2844 c-4 -4 -7 -18 -7 -31 0 -28 23 -27 28 1 4 20 -11 40 -21
30z"/>
<path d="M7441 2842 c-1 -7 -5 -11 -10 -8 -5 3 -20 -3 -34 -14 -14 -11 -31
-20 -37 -20 -7 0 -10 -7 -7 -14 6 -15 -29 -33 -40 -22 -4 3 1 6 11 6 9 0 14 5
11 10 -12 20 -33 10 -46 -22 -17 -40 -14 -56 15 -83 12 -11 20 -28 18 -39 -2
-11 0 -16 7 -12 28 18 86 -83 62 -107 -8 -8 -15 -6 -26 9 -8 10 -15 14 -15 7
0 -8 -12 -13 -27 -12 -25 0 -26 1 -8 9 16 7 17 9 3 9 -9 1 -18 6 -20 13 -2 6
-11 12 -19 14 -7 1 -26 5 -41 9 -23 6 -26 4 -21 -14 3 -12 1 -21 -6 -21 -6 0
-11 -9 -11 -20 0 -11 5 -20 10 -20 6 0 10 9 10 20 0 11 4 20 8 20 16 0 32 -25
32 -51 0 -37 21 -51 69 -46 22 2 45 -1 51 -7 10 -10 15 3 11 32 -2 8 5 12 16
10 11 -2 19 -13 21 -29 2 -15 14 -32 32 -43 l30 -17 0 75 c0 69 -2 76 -19 76
-39 0 -37 39 2 58 21 10 21 11 2 12 -13 0 -26 14 -39 41 -15 34 -20 38 -28 25
-10 -17 -58 -22 -58 -6 0 6 -7 10 -15 10 -8 0 -15 7 -15 16 0 11 -5 14 -16 10
-12 -4 -15 0 -12 17 2 15 11 23 28 26 14 1 37 12 51 22 33 24 35 24 66 -1 37
-29 53 -26 53 10 0 20 -5 30 -15 30 -9 0 -20 10 -25 23 -5 12 -9 16 -9 9z m-6
-234 c6 -4 2 -8 -7 -8 -10 0 -18 7 -18 17 0 9 3 12 8 7 4 -5 12 -12 17 -16z"/>
<path d="M403 2818 c2 -13 12 -25 21 -26 13 -3 17 2 14 20 -2 12 -11 24 -21
26 -13 3 -16 -2 -14 -20z"/>
<path d="M494 2818 c1 -13 6 -22 9 -20 4 1 12 2 17 2 6 0 10 9 10 20 0 13 -7
20 -20 20 -15 0 -19 -6 -16 -22z"/>
<path d="M570 2830 c0 -5 9 -10 21 -10 11 0 17 5 14 10 -3 6 -13 10 -21 10 -8
0 -14 -4 -14 -10z"/>
<path d="M6661 2794 c0 -11 3 -14 6 -6 3 7 2 16 -1 19 -3 4 -6 -2 -5 -13z"/>
<path d="M6876 2797 c3 -10 9 -15 12 -12 3 3 0 11 -7 18 -10 9 -11 8 -5 -6z"/>
<path d="M7250 2791 c0 -11 5 -23 10 -26 6 -4 10 5 10 19 0 14 -4 26 -10 26
-5 0 -10 -9 -10 -19z"/>
<path d="M7035 2794 c-5 -1 -27 -5 -48 -9 -22 -3 -35 -10 -31 -16 3 -6 17 -8
30 -5 44 11 86 -53 51 -76 -9 -6 -8 -8 1 -8 7 0 12 -8 10 -17 -2 -10 4 -19 13
-21 14 -2 16 6 13 55 -1 32 -3 64 -3 71 -1 7 -5 11 -10 7 -5 -3 -11 1 -13 8
-2 8 -7 13 -13 11z"/>
<path d="M900 2756 c0 -30 -3 -35 -27 -38 -25 -3 -28 -7 -25 -33 2 -16 4 -30
5 -31 10 -8 67 11 67 22 0 8 6 14 14 14 9 0 16 12 18 27 2 18 10 29 22 31 11
3 25 10 32 17 11 10 9 14 -9 19 -12 3 -39 6 -59 6 -37 0 -38 -1 -38 -34z m35
-26 c3 -5 1 -10 -4 -10 -6 0 -11 5 -11 10 0 6 2 10 4 10 3 0 8 -4 11 -10z"/>
<path d="M1085 2781 c-3 -6 4 -15 15 -21 18 -10 19 -14 8 -28 -11 -14 -11 -15
5 -9 10 4 25 7 33 7 19 0 18 13 -5 38 -19 23 -46 29 -56 13z"/>
<path d="M7110 2780 c-11 -7 -6 -10 22 -10 20 0 40 5 43 10 8 13 -45 13 -65 0z"/>
<path d="M1273 2774 c4 -4 -9 -13 -29 -19 -30 -8 -37 -15 -40 -39 -2 -16 -9
-33 -16 -37 -9 -6 -8 -10 6 -15 12 -5 23 -2 31 9 8 11 27 17 54 17 35 0 41 3
41 20 0 11 -7 23 -15 26 -8 4 -15 12 -15 19 0 8 -6 17 -12 21 -7 4 -9 3 -5 -2z"/>
<path d="M6701 2756 c-1 -22 3 -27 15 -22 9 3 28 6 42 7 l27 1 -29 8 c-16 5
-33 7 -37 4 -4 -2 -10 4 -12 13 -3 11 -5 7 -6 -11z"/>
<path d="M6876 2739 c-6 -31 -7 -32 -20 -13 -17 22 -41 8 -31 -18 8 -22 55
-18 55 4 0 10 11 19 30 23 30 7 42 25 16 25 -8 0 -21 2 -29 6 -10 3 -16 -5
-21 -27z"/>
<path d="M6970 2730 c-13 -8 -12 -10 3 -10 9 0 17 5 17 10 0 12 -1 12 -20 0z"/>
<path d="M595 2713 c4 -13 2 -23 -4 -23 -6 0 -11 -9 -11 -20 0 -15 7 -20 29
-20 17 0 33 -5 37 -12 5 -7 11 -5 21 7 21 30 16 45 -16 45 -18 0 -35 8 -45 23
l-17 22 6 -22z"/>
<path d="M6900 2705 c0 -11 11 -15 43 -15 41 1 42 1 17 15 -33 19 -60 19 -60
0z"/>
<path d="M7119 2703 c0 -11 -3 -13 -6 -5 -2 6 -9 10 -13 7 -5 -3 0 -15 10 -25
21 -21 27 -50 11 -50 -5 0 -12 -8 -15 -17 -4 -10 -4 -14 0 -11 3 4 14 -3 24
-14 l17 -22 12 22 c6 12 17 19 25 16 22 -9 29 16 11 36 -11 13 -15 28 -11 43
5 20 1 26 -17 31 -36 10 -47 7 -48 -11z"/>
<path d="M7230 2705 c0 -8 4 -15 10 -15 5 0 7 7 4 15 -4 8 -8 15 -10 15 -2 0
-4 -7 -4 -15z"/>
<path d="M6801 2694 c0 -11 3 -14 6 -6 3 7 2 16 -1 19 -3 4 -6 -2 -5 -13z"/>
<path d="M1045 2687 c6 -15 55 -21 55 -6 0 5 -6 9 -14 9 -8 0 -22 3 -30 6 -12
4 -15 2 -11 -9z"/>
<path d="M80 2674 c0 -8 5 -12 10 -9 6 4 8 11 5 16 -9 14 -15 11 -15 -7z"/>
<path d="M105 2639 c-16 -10 -24 -19 -17 -19 7 0 12 -13 12 -30 0 -30 13 -40
25 -20 4 6 11 8 16 5 5 -4 9 1 9 9 0 9 8 16 17 16 14 0 13 3 -5 16 -13 9 -21
22 -18 30 7 18 -2 17 -39 -7z"/>
<path d="M313 2653 c-7 -2 -13 -14 -13 -26 1 -20 2 -20 11 -4 5 9 17 17 25 17
8 0 12 5 9 10 -7 11 -13 11 -32 3z"/>
<path d="M6818 2639 c-15 -16 -15 -18 8 -23 13 -4 24 -11 24 -16 0 -6 7 -10
15 -10 23 0 17 33 -8 51 -20 14 -23 14 -39 -2z"/>
<path d="M7 2633 c-4 -3 -7 -24 -7 -45 0 -29 4 -38 17 -38 13 0 14 3 5 12 -18
18 -15 28 8 28 20 0 44 32 33 44 -8 8 -48 8 -56 -1z"/>
<path d="M223 2620 c2 -24 13 -26 21 -4 8 22 8 24 -8 24 -9 0 -14 -9 -13 -20z"/>
<path d="M881 2624 c0 -11 3 -14 6 -6 3 7 2 16 -1 19 -3 4 -6 -2 -5 -13z"/>
<path d="M843 2595 c-7 -8 -13 -29 -13 -47 l0 -33 25 30 c25 30 29 56 10 61
-5 2 -16 -3 -22 -11z"/>
<path d="M682 2584 c-13 -9 -29 -13 -37 -10 -18 6 -24 -13 -14 -41 5 -15 5
-23 -2 -23 -6 0 -7 -4 -4 -10 11 -18 25 -11 25 13 0 15 11 27 33 37 17 8 33
23 35 33 4 21 -7 22 -36 1z"/>
<path d="M6878 2580 c-17 -19 -17 -20 5 -16 12 1 21 6 20 10 -6 23 -10 24 -25
6z"/>
<path d="M6744 2563 c-7 -16 -14 -41 -17 -58 -3 -16 -8 -37 -11 -45 -7 -18 56
-41 76 -29 10 7 10 9 1 9 -22 0 -15 48 7 55 21 7 28 25 10 25 -5 0 -10 10 -10
21 0 19 -24 48 -40 49 -3 0 -10 -12 -16 -27z"/>
<path d="M336 2565 c4 -8 1 -15 -5 -15 -19 0 -12 -18 9 -25 22 -7 44 11 46 38
1 12 -6 17 -27 17 -21 0 -27 -4 -23 -15z"/>
<path d="M581 2567 c-1 -10 -8 -20 -16 -23 -8 -4 -15 -17 -15 -30 0 -19 5 -24
24 -24 14 0 28 5 31 10 3 6 2 10 -4 10 -6 0 -8 6 -5 13 2 7 0 24 -5 38 -7 18
-10 19 -10 6z"/>
<path d="M900 2550 c0 -24 4 -30 23 -30 16 0 18 3 8 9 -11 7 -11 9 0 13 17 6
4 38 -16 38 -10 0 -15 -10 -15 -30z"/>
<path d="M7076 2534 c-9 -22 -8 -24 9 -24 8 0 15 6 15 14 0 22 -17 28 -24 10z"/>
<path d="M30 2530 c13 -8 12 -10 -2 -10 -10 0 -18 -4 -18 -9 0 -5 -3 -17 -6
-26 -5 -12 -2 -16 12 -14 10 1 30 -3 44 -9 23 -9 26 -7 40 24 8 19 21 34 28
34 6 0 12 4 12 8 0 4 -28 9 -62 10 -45 1 -59 -1 -48 -8z"/>
<path d="M800 2524 c0 -8 5 -12 10 -9 6 4 8 11 5 16 -9 14 -15 11 -15 -7z"/>
<path d="M6836 2531 c-3 -5 5 -12 19 -15 14 -4 25 -11 25 -17 0 -6 4 -8 9 -5
5 3 7 15 4 26 -5 21 -47 29 -57 11z"/>
<path d="M6638 2524 c-5 -4 -8 -16 -8 -28 0 -14 3 -17 11 -9 6 6 9 19 7 28 -1
9 -6 13 -10 9z"/>
<path d="M700 2511 c-8 -3 -16 -15 -17 -27 -2 -18 3 -21 42 -20 45 0 53 8 35
36 -10 16 -36 21 -60 11z"/>
<path d="M6650 2480 c0 -5 10 -10 23 -10 18 0 19 2 7 10 -19 13 -30 13 -30 0z"/>
<path d="M7180 2475 c0 -8 5 -15 10 -15 6 0 10 7 10 15 0 8 -4 15 -10 15 -5 0
-10 -7 -10 -15z"/>
<path d="M7192 2451 c-11 -7 -11 -9 1 -14 9 -3 18 1 21 9 6 16 -2 18 -22 5z"/>
<path d="M400 2360 c0 -11 -1 -23 -2 -27 -1 -5 6 -9 15 -11 22 -4 24 43 2 52
-10 4 -15 -1 -15 -14z"/>
<path d="M716 2358 c7 -11 34 -10 34 1 0 6 -9 9 -19 8 -11 0 -17 -5 -15 -9z"/>
<path d="M238 2303 c-14 -16 -15 -20 -2 -37 13 -18 14 -18 14 -2 0 10 9 20 20
23 12 3 19 11 17 17 -6 18 -32 18 -49 -1z"/>
<path d="M0 2080 c0 -23 4 -30 20 -30 16 0 20 7 20 30 0 23 -4 30 -20 30 -16
0 -20 -7 -20 -30z"/>
<path d="M107 2082 c-3 -4 3 -13 14 -20 10 -7 19 -8 19 -3 0 13 -28 33 -33 23z"/>
<path d="M297 2050 c-22 -21 -21 -26 2 -33 28 -7 39 5 27 29 -10 19 -12 19
-29 4z"/>
<path d="M121 1824 c0 -11 3 -14 6 -6 3 7 2 16 -1 19 -3 4 -6 -2 -5 -13z"/>
<path d="M121 1774 c0 -11 3 -14 6 -6 3 7 2 16 -1 19 -3 4 -6 -2 -5 -13z"/>
<path d="M0 1770 c0 -5 5 -10 11 -10 5 0 7 5 4 10 -3 6 -8 10 -11 10 -2 0 -4
-4 -4 -10z"/>
<path d="M3590 1429 c0 -5 5 -7 10 -4 6 3 10 8 10 11 0 2 -4 4 -10 4 -5 0 -10
-5 -10 -11z"/>
</g>
</svg>
